<svg width="206" height="157" viewBox="0 0 206 157" fill="none" xmlns="http://www.w3.org/2000/svg">
<path d="M13.6052 15.9532C8.35961 28.3535 7.40023 31.5323 6.29289 34.945C3.27111 44.2579 4.2214 48.4002 3.98037 58.1538C3.78926 65.8869 3.2668 73.5349 3.02576 77.6659C2.86822 80.366 2.62722 85.6011 2.54846 91.7225C2.45104 99.2952 2.46493 108.216 3.02338 112.511C3.39507 115.371 3.89684 119.184 4.85144 123.253C5.60558 126.468 6.59837 130.009 7.79401 133.992C8.52682 136.434 9.93948 138.61 12.4811 141.235C14.2687 143.082 16.4594 144.023 18.9247 144.901C22.2907 146.1 26.4732 147.202 29.4253 148.163C34.7299 149.892 43.1788 151.182 47.558 151.982C50.4956 152.518 53.6889 152.776 58.4524 153.731C61.9064 154.423 66.7193 154.371 71.1057 154.846C72.6427 155.012 80.1983 155.325 91.0927 155.247C98.2416 155.195 103.004 154.533 109.755 154.292C115.886 154.073 126.678 153.263 131.88 152.781C138.03 152.211 144.357 151.354 149.142 150.951C153.292 150.601 157.092 150.237 160.998 149.996C163.997 149.811 166.17 149.12 168.797 148.645C171.765 148.109 174.599 147.373 180.401 146.736C183.224 146.426 185.739 145.626 188.209 144.352C190.311 143.268 192.106 141.808 197.03 136.889C199.168 134.753 200.221 130.534 201.182 126.064C201.768 123.344 202.139 119.547 202.535 116.358C203.066 112.084 203.409 108.569 203.65 105.695C203.704 105.053 203.886 104.426 203.967 99.376C204.048 94.3261 204.048 84.8756 203.97 79.6921C203.826 70.2294 203.256 63.2156 203.015 58.1347C202.86 54.8688 201.662 51.4454 201.266 47.9515C200.457 40.8194 200.707 33.8329 200.311 28.8499C200.057 25.6566 198.96 21.8527 198.244 19.3039C197.575 16.9192 195.304 15.9628 193.555 14.5261C190.594 12.0941 183.706 10.7124 180.749 10.1468C178.143 9.64843 173.683 9.11826 169.857 8.63618C165.203 8.04971 162.38 7.52407 159.986 6.88687C156.877 6.05928 153.626 6.09217 149.335 5.77238C145.128 5.45882 138.544 4.34524 134.136 3.54576C129.343 2.67653 122.936 2.75106 114.903 2.51002C108.755 2.32553 102.727 1.79645 96.3621 1.55542C89.199 1.28415 82.1934 1.47189 79.5611 1.71293C76.6087 1.98327 71.855 2.42649 66.1322 2.74628C60.6556 3.05232 58.481 3.8584 54.9896 4.25694C48.6996 4.97493 46.5485 5.7676 43.3697 6.32605C40.6892 6.79695 37.4893 7.19951 33.8236 7.44054C30.9338 7.63057 28.411 8.15411 25.1535 8.4739C21.6153 8.82124 18.865 10.0633 16.9534 10.7005C16.0012 11.0179 14.7268 11.4952 11.5647 13.3114C9.19011 14.8125 5.25238 17.4901 1.19531 20.2489" stroke="#9925CF" stroke-width="2" stroke-linecap="round"/>
</svg>
