<svg width="260" height="136" viewBox="0 0 260 136" fill="none" xmlns="http://www.w3.org/2000/svg">
<path d="M81.6862 1C71.3012 1 44.8211 3.4392 35.2076 6.53439C27.6809 8.95766 22.8868 12.3829 17.953 15.7691C12.7134 19.3652 8.71364 24.6898 6.54701 29.9285C3.89758 36.3346 3.46568 40.7108 2.38467 50.3706C-0.308491 74.4364 5.90487 83.1935 7.91906 87.9887C10.1887 93.3921 13.9247 97.995 18.221 102.153C25.3536 109.055 37.2633 115.531 45.4725 118.793C54.2828 122.293 59.7889 124.179 88.0429 130.176C97.5782 132.199 102.604 132.199 110.139 132.966C116.084 133.571 122.312 133.428 130.433 133.89C154.002 135.231 162.642 133.123 172.657 131.589C179.561 130.532 185.74 130.351 201.586 127.746C209.791 126.397 216.858 122.664 221.644 120.197C230.946 115.403 244.262 108.214 251.82 98.0504C255.581 92.9927 256.606 88.7926 257.539 82.0293C259.399 68.552 257.863 51.8535 254.629 45.677C252.404 41.4281 244.059 33.0976 235.859 26.8887C224.044 17.9425 207.434 12.734 198.892 9.47713C193.057 7.25231 179.725 5.01913 155.486 2.70928C141.308 1.92394 123.319 1.92394 113.29 2.07639C103.26 2.22884 101.736 2.53374 100.165 2.84788" stroke="#BC2BFF" stroke-width="2" stroke-linecap="round"/>
</svg>
