<svg width="20" height="64" viewBox="0 0 20 64" fill="none" xmlns="http://www.w3.org/2000/svg">
<path d="M7.3871 1.26953C7.3871 1.56616 7.3871 5.87178 7.60957 13.5729C7.91751 24.2325 9.03204 28.6673 9.25901 34.283C9.32362 35.8815 9.63429 42.11 9.11519 50.7257C8.94206 53.5991 7.55789 53.2605 6.80058 52.8111C4.23783 51.2902 3.05452 47.5796 1.76913 44.9437C0.0467522 41.4116 7.21632 55.4448 8.80733 60.51C9.02156 61.192 9.32867 61.7819 9.70395 62.2358C10.0792 62.6897 10.5242 62.9864 11.7916 61.4336C15.1354 56.4695 17.5714 51.4718 18.0208 48.4088C18.1736 46.8291 18.1736 45.1976 18.1736 43.5167" stroke="#9925CF" stroke-width="2" stroke-linecap="round"/>
</svg>
