<?xml version="1.0" encoding="utf-8" ?>
<svg xmlns="http://www.w3.org/2000/svg" xmlns:xlink="http://www.w3.org/1999/xlink" width="200" height="150">
	<path fill="#FEFEFE" transform="matrix(0.14652 0 0 0.146484 6.10352e-05 0)" d="M258.307 562.726C260.11 495.67 258.598 428.318 258.628 361.228L258.83 313.996C258.788 304.124 257.685 293.866 259.105 284.078C260.132 277.002 263.143 269.625 268.442 264.67C273.439 259.997 279.821 257.759 286.53 257.328C300.256 256.448 313.744 257.244 327.448 257.366L386.691 257.35L604.812 257.247L829.659 257.137L891.946 257.201C902.15 257.112 912.316 255.996 922.523 256.615C932.271 257.206 941.891 260.06 948.601 267.587C953.135 272.671 954.856 277.249 955.375 284.029C956.077 293.19 955.631 302.578 955.576 311.764L955.325 360.012L955.261 511.189L955.085 679.46L955.172 734.526C955.191 745.215 955.601 756.041 954.919 766.705C954.309 776.251 951.843 785.623 944.388 792.157C938.228 797.556 931.278 799.835 923.198 800.446C913.852 801.152 904.464 800.341 895.112 800.182Q874.456 800.027 853.8 800.084L693.627 799.998L528.792 799.957L485.352 799.947C475.025 800.017 464.681 800.509 454.368 799.796C453.56 799.741 452.808 799.632 452.019 799.447C443.16 796.419 433.298 797.737 424.107 798.03C423.005 795.02 422.415 791.84 421.719 788.717C416.249 759.44 397.596 725.116 382.024 700.06C366.308 674.771 336.116 633.019 305.247 626.097C293.236 623.404 286.293 627.571 276.552 633.868L279.007 626.952C279.085 626.804 279.17 626.661 279.241 626.51C284.156 616.09 283.523 603.051 279.55 592.513C277.577 585.483 273.411 579.66 269.315 573.738Q269.462 561.45 269.328 549.162C266.531 553.318 267.439 564.746 266.513 570.085C264.393 568.34 259.336 565.083 258.307 562.726Z"/>
	<path fill="#5F1582" transform="matrix(0.14652 0 0 0.146484 6.10352e-05 0)" d="M271.682 346.825L270.637 346.488C270.203 345.788 269.965 345.328 269.896 344.49C269.312 337.446 270.031 330.148 270.013 323.073C269.981 311.031 268.474 298.049 270.254 286.188C270.82 282.421 271.843 278.682 274.392 275.741C279.285 270.097 285.957 268.581 293.129 268.115C314.158 266.751 337.115 267.966 358.348 267.97L487.731 267.981L809.685 267.936L878.022 267.89C891.513 267.837 920.775 265.628 932.664 269.37C934.433 269.926 936.254 270.626 937.615 271.927C940.566 274.75 942.194 278.864 942.946 282.815C944.354 290.202 943.4 298.315 943.345 305.829L943.195 346.237L854.094 346.185C854.293 346.219 854.491 346.255 854.69 346.286C862.027 347.414 870.046 346.867 877.484 346.85L916.112 346.717C921.47 346.697 928.524 345.789 933.605 347.351L933.946 348.151C928.183 349.025 921.901 348.519 916.075 348.506L885.197 348.464C880.466 348.476 874.628 347.971 870.079 349.176C854.689 349.692 839.163 349.299 823.751 349.341Q775.706 349.573 727.661 349.263L572.214 349.216C563.478 347.85 553.782 348.52 544.912 348.518L497.694 348.558L332.155 348.565L294.721 348.615C287.386 348.639 279.425 349.286 272.18 348.138L271.682 346.825Z"/>
	<path transform="matrix(0.14652 0 0 0.146484 6.10352e-05 0)" d="M271.682 346.825C291.142 345.619 311.134 346.532 330.651 346.522L442.578 346.466L706.716 346.283L810.08 346C824.76 345.968 839.41 346.402 854.094 346.185C854.293 346.219 854.491 346.255 854.69 346.286C862.027 347.414 870.046 346.867 877.484 346.85L916.112 346.717C921.47 346.697 928.524 345.789 933.605 347.351L933.946 348.151C928.183 349.025 921.901 348.519 916.075 348.506L885.197 348.464C880.466 348.476 874.628 347.971 870.079 349.176C854.689 349.692 839.163 349.299 823.751 349.341Q775.706 349.573 727.661 349.263L572.214 349.216C563.478 347.85 553.782 348.52 544.912 348.518L497.694 348.558L332.155 348.565L294.721 348.615C287.386 348.639 279.425 349.286 272.18 348.138L271.682 346.825Z"/>
	<path fill="#FEFEFE" transform="matrix(0.14652 0 0 0.146484 6.10352e-05 0)" d="M886.469 291.763C892.056 291.377 899.848 291.428 905.273 292.804C908.393 294.587 910.945 296.575 912.959 299.609C915.287 303.117 916.648 307.444 915.633 311.638C914.621 315.821 911.585 319.635 907.795 321.645C904.255 323.523 900.116 323.825 896.181 323.91C868.73 324.503 841.065 323.759 813.592 323.752L641.342 323.831C623.513 323.844 477.06 325.528 470.464 323.076C466.332 321.54 462.761 317.837 461.239 313.736C459.621 309.378 460.096 304.279 462.18 300.152C464.204 296.144 467.842 294.288 471.872 292.876C484.101 290.655 498.515 292.042 511.031 292.047L587.149 292.044L872.155 292.108L886.469 291.763Z"/>
	<path transform="matrix(0.14652 0 0 0.146484 6.10352e-05 0)" d="M905.273 292.804C908.393 294.587 910.945 296.575 912.959 299.609C915.287 303.117 916.648 307.444 915.633 311.638C914.621 315.821 911.585 319.635 907.795 321.645C904.255 323.523 900.116 323.825 896.181 323.91C868.73 324.503 841.065 323.759 813.592 323.752L641.342 323.831C623.513 323.844 477.06 325.528 470.464 323.076C466.332 321.54 462.761 317.837 461.239 313.736C459.621 309.378 460.096 304.279 462.18 300.152C464.204 296.144 467.842 294.288 471.872 292.876C472.042 293.804 472.336 294.833 472.367 295.77C468.65 297.297 465.494 299.319 463.881 303.212C462.563 306.391 463.064 310.055 464.479 313.111C465.965 316.32 468.458 318.46 471.217 320.555C500.506 321.807 529.759 320.847 559.057 320.799L712.834 320.709L840.912 320.696L878.465 320.771C884.712 320.83 891.085 321.392 897.312 321.049C901.65 320.81 905.579 320.215 908.834 317.043C911.349 314.591 912.998 311.19 913.039 307.647C913.076 304.514 911.701 301.511 909.46 299.343C907.94 297.872 906.186 296.872 904.319 295.913L905.273 292.804Z"/>
	<path fill="#19171A" transform="matrix(0.14652 0 0 0.146484 6.10352e-05 0)" d="M872.155 292.108L886.469 291.763C886.778 293.361 886.736 294.043 886.227 295.589C852.632 296.272 818.829 295.282 785.209 295.274L521.706 295.464C512.47 295.874 503.253 295.718 494.015 295.482C486.945 295.301 479.345 294.532 472.367 295.77C472.336 294.833 472.042 293.804 471.872 292.876C484.101 290.655 498.515 292.042 511.031 292.047L587.149 292.044L872.155 292.108Z"/>
	<path fill="#2E2E47" transform="matrix(0.14652 0 0 0.146484 6.10352e-05 0)" d="M471.872 292.876C484.101 290.655 498.515 292.042 511.031 292.047L587.149 292.044L872.155 292.108C863.898 293.732 854.25 292.814 845.806 292.797L797.472 292.689L618.41 292.725C588.369 292.728 558.072 291.852 528.067 292.632C526.173 292.681 523.801 292.53 522.183 293.596L521.706 295.464C512.47 295.874 503.253 295.718 494.015 295.482C486.945 295.301 479.345 294.532 472.367 295.77C472.336 294.833 472.042 293.804 471.872 292.876Z"/>
	<path fill="#2E2E47" transform="matrix(0.14652 0 0 0.146484 6.10352e-05 0)" d="M886.469 291.763C892.056 291.377 899.848 291.428 905.273 292.804L904.319 295.913C899 294.313 891.754 295.395 886.227 295.589C886.736 294.043 886.778 293.361 886.469 291.763Z"/>
	<path transform="matrix(0.14652 0 0 0.146484 6.10352e-05 0)" d="M406.905 294.313Q407.233 294.236 407.564 294.175Q407.896 294.114 408.23 294.069Q408.564 294.024 408.9 293.995Q409.235 293.967 409.572 293.954Q409.909 293.942 410.246 293.946Q410.583 293.951 410.919 293.971Q411.256 293.992 411.591 294.029Q411.926 294.066 412.258 294.119Q412.591 294.173 412.921 294.242Q413.251 294.312 413.577 294.397Q413.903 294.482 414.224 294.584Q414.545 294.685 414.862 294.802Q415.178 294.919 415.488 295.051Q415.798 295.183 416.101 295.33Q416.404 295.477 416.7 295.638Q416.996 295.8 417.283 295.976Q417.571 296.151 417.849 296.341Q418.128 296.531 418.397 296.734Q418.666 296.937 418.925 297.152Q419.184 297.368 419.432 297.596Q419.68 297.825 419.917 298.065Q420.153 298.305 420.378 298.556Q420.602 298.807 420.815 299.069Q421.027 299.331 421.226 299.603Q421.425 299.875 421.611 300.156Q421.796 300.438 421.968 300.728Q422.14 301.018 422.297 301.316Q422.454 301.614 422.597 301.919Q422.74 302.224 422.867 302.536Q422.995 302.848 423.107 303.166Q423.22 303.484 423.316 303.807Q423.413 304.13 423.494 304.457Q423.575 304.784 423.64 305.115Q423.704 305.446 423.753 305.779Q423.802 306.113 423.834 306.448Q423.866 306.784 423.882 307.121Q423.898 307.457 423.898 307.794Q423.897 308.132 423.88 308.468Q423.863 308.805 423.83 309.14Q423.797 309.476 423.747 309.809Q423.698 310.142 423.632 310.473Q423.566 310.804 423.484 311.131Q423.403 311.458 423.305 311.78Q423.207 312.103 423.094 312.42Q422.981 312.738 422.852 313.049Q422.724 313.361 422.58 313.666Q422.437 313.971 422.278 314.269Q422.12 314.566 421.948 314.856Q421.775 315.145 421.589 315.426Q421.402 315.707 421.202 315.978Q421.002 316.249 420.789 316.511Q420.577 316.772 420.351 317.023Q420.126 317.273 419.888 317.513Q419.651 317.752 419.403 317.979Q419.154 318.207 418.894 318.422Q418.635 318.637 418.365 318.839Q418.096 319.042 417.816 319.23Q417.537 319.419 417.249 319.594Q416.961 319.769 416.665 319.93Q416.369 320.091 416.065 320.237Q415.761 320.383 415.451 320.514Q415.141 320.645 414.824 320.761Q414.508 320.877 414.186 320.977Q413.864 321.077 413.538 321.162Q413.097 321.276 412.649 321.361Q412.201 321.446 411.749 321.502Q411.296 321.557 410.841 321.582Q410.386 321.608 409.93 321.603Q409.474 321.598 409.02 321.564Q408.565 321.529 408.114 321.465Q407.663 321.4 407.217 321.306Q406.771 321.212 406.332 321.089Q405.893 320.965 405.464 320.813Q405.034 320.661 404.615 320.481Q404.196 320.301 403.79 320.094Q403.384 319.887 402.992 319.654Q402.601 319.42 402.226 319.162Q401.85 318.903 401.493 318.62Q401.135 318.337 400.797 318.031Q400.459 317.725 400.142 317.398Q399.825 317.071 399.53 316.723Q399.235 316.375 398.963 316.009Q398.692 315.643 398.445 315.259Q398.199 314.876 397.978 314.477Q397.757 314.078 397.563 313.665Q397.368 313.253 397.202 312.828Q397.035 312.404 396.897 311.969Q396.759 311.535 396.649 311.092Q396.54 310.65 396.46 310.201Q396.38 309.752 396.33 309.298Q396.28 308.845 396.259 308.39Q396.239 307.934 396.249 307.478Q396.259 307.022 396.298 306.568Q396.338 306.114 396.408 305.663Q396.477 305.213 396.577 304.768Q396.676 304.323 396.804 303.885Q396.932 303.447 397.089 303.019Q397.246 302.591 397.43 302.174Q397.615 301.758 397.826 301.354Q398.038 300.95 398.276 300.561Q398.514 300.172 398.776 299.799Q399.039 299.427 399.326 299.073Q399.613 298.718 399.923 298.384Q400.232 298.049 400.563 297.735Q400.894 297.422 401.245 297.131Q401.595 296.84 401.965 296.572Q402.334 296.305 402.72 296.063Q403.106 295.82 403.507 295.604Q403.908 295.387 404.323 295.198Q404.737 295.008 405.164 294.846Q405.59 294.684 406.025 294.551Q406.461 294.417 406.905 294.313Z"/>
	<path fill="#FEFEFE" transform="matrix(0.14652 0 0 0.146484 6.10352e-05 0)" d="M408.655 297.025Q408.915 296.992 409.177 296.972Q409.439 296.952 409.701 296.944Q409.963 296.937 410.226 296.942Q410.488 296.948 410.75 296.966Q411.012 296.984 411.272 297.015Q411.533 297.046 411.792 297.09Q412.05 297.133 412.307 297.19Q412.563 297.246 412.816 297.314Q413.07 297.383 413.319 297.464Q413.569 297.545 413.814 297.638Q414.06 297.731 414.3 297.836Q414.541 297.941 414.776 298.057Q415.011 298.174 415.24 298.301Q415.47 298.429 415.692 298.568Q415.915 298.707 416.131 298.856Q416.346 299.006 416.555 299.166Q416.763 299.326 416.963 299.495Q417.163 299.665 417.355 299.845Q417.546 300.024 417.729 300.213Q417.911 300.401 418.084 300.598Q418.258 300.795 418.421 301.001Q418.584 301.206 418.738 301.419Q418.891 301.633 419.033 301.853Q419.176 302.073 419.308 302.3Q419.439 302.527 419.56 302.761Q419.68 302.994 419.789 303.233Q419.898 303.471 419.995 303.715Q420.092 303.959 420.177 304.207Q420.263 304.456 420.336 304.708Q420.408 304.96 420.469 305.215Q420.53 305.471 420.578 305.729Q420.626 305.987 420.661 306.247Q420.696 306.507 420.719 306.769Q420.742 307.03 420.752 307.293Q420.762 307.555 420.759 307.817Q420.756 308.08 420.74 308.342Q420.724 308.604 420.696 308.865Q420.668 309.126 420.626 309.385Q420.585 309.644 420.531 309.901Q420.478 310.158 420.412 310.412Q420.345 310.666 420.267 310.917Q420.188 311.167 420.098 311.414Q420.007 311.66 419.904 311.902Q419.802 312.143 419.688 312.38Q419.573 312.616 419.448 312.847Q419.322 313.077 419.186 313.301Q419.049 313.525 418.901 313.742Q418.754 313.96 418.596 314.169Q418.438 314.379 418.27 314.581Q418.103 314.783 417.925 314.976Q417.747 315.169 417.561 315.354Q417.374 315.538 417.178 315.713Q416.983 315.888 416.779 316.054Q416.575 316.219 416.364 316.374Q416.152 316.53 415.933 316.674Q415.714 316.819 415.488 316.953Q415.262 317.087 415.03 317.209Q414.798 317.332 414.561 317.443Q414.323 317.555 414.08 317.654Q413.837 317.753 413.59 317.841Q413.342 317.928 413.091 318.004Q412.839 318.079 412.585 318.142Q412.33 318.205 412.072 318.256Q411.815 318.306 411.555 318.344Q411.292 318.382 411.028 318.408Q410.763 318.433 410.498 318.445Q410.233 318.457 409.967 318.456Q409.701 318.455 409.436 318.441Q409.171 318.427 408.907 318.4Q408.642 318.373 408.38 318.333Q408.117 318.293 407.857 318.24Q407.597 318.187 407.339 318.121Q407.082 318.055 406.828 317.977Q406.574 317.898 406.325 317.807Q406.075 317.716 405.83 317.613Q405.586 317.51 405.346 317.395Q405.107 317.28 404.873 317.153Q404.64 317.026 404.413 316.888Q404.186 316.75 403.966 316.601Q403.746 316.452 403.534 316.292Q403.322 316.132 403.118 315.962Q402.914 315.792 402.718 315.612Q402.523 315.432 402.337 315.243Q402.151 315.053 401.974 314.855Q401.797 314.656 401.63 314.45Q401.464 314.243 401.307 314.028Q401.151 313.813 401.006 313.591Q400.86 313.368 400.726 313.139Q400.591 312.91 400.469 312.674Q400.346 312.439 400.235 312.197Q400.124 311.956 400.025 311.71Q399.925 311.463 399.839 311.212Q399.752 310.961 399.678 310.706Q399.603 310.451 399.542 310.192Q399.48 309.934 399.432 309.672Q399.383 309.411 399.347 309.148Q399.311 308.885 399.288 308.62Q399.266 308.355 399.256 308.09Q399.246 307.824 399.25 307.559Q399.253 307.293 399.27 307.028Q399.286 306.763 399.316 306.499Q399.345 306.235 399.388 305.972Q399.431 305.71 399.486 305.45Q399.542 305.191 399.61 304.934Q399.678 304.677 399.759 304.424Q399.84 304.171 399.933 303.922Q400.026 303.673 400.132 303.429Q400.237 303.186 400.354 302.947Q400.472 302.709 400.601 302.477Q400.729 302.244 400.87 302.019Q401.01 301.793 401.161 301.575Q401.312 301.356 401.474 301.145Q401.636 300.935 401.808 300.732Q401.98 300.53 402.162 300.336Q402.343 300.142 402.535 299.958Q402.726 299.773 402.926 299.598Q403.126 299.424 403.334 299.259Q403.542 299.094 403.759 298.94Q403.975 298.785 404.198 298.642Q404.422 298.499 404.652 298.366Q404.883 298.234 405.119 298.114Q405.356 297.993 405.598 297.884Q405.841 297.775 406.088 297.679Q406.335 297.582 406.587 297.497Q406.839 297.413 407.095 297.341Q407.351 297.269 407.609 297.21Q407.868 297.151 408.13 297.105Q408.392 297.058 408.655 297.025Z"/>
	<path transform="matrix(0.14652 0 0 0.146484 6.10352e-05 0)" d="M308.938 294.289Q309.38 294.163 309.83 294.067Q310.28 293.971 310.735 293.905Q311.19 293.839 311.649 293.803Q312.108 293.767 312.568 293.762Q313.028 293.757 313.487 293.783Q313.946 293.809 314.403 293.865Q314.859 293.921 315.311 294.008Q315.763 294.094 316.208 294.211Q316.653 294.327 317.089 294.473Q317.525 294.619 317.951 294.794Q318.377 294.968 318.79 295.171Q319.203 295.373 319.601 295.603Q320 295.833 320.382 296.088Q320.765 296.344 321.129 296.624Q321.494 296.905 321.839 297.209Q322.184 297.513 322.508 297.84Q322.832 298.167 323.134 298.514Q323.435 298.861 323.713 299.228Q323.991 299.595 324.244 299.979Q324.496 300.364 324.723 300.764Q324.95 301.165 325.149 301.579Q325.348 301.994 325.52 302.421Q325.691 302.848 325.834 303.285Q325.976 303.723 326.089 304.169Q326.202 304.615 326.286 305.067Q326.369 305.52 326.422 305.977Q326.474 306.434 326.497 306.894Q326.519 307.353 326.511 307.813Q326.502 308.273 326.463 308.732Q326.424 309.19 326.355 309.645Q326.285 310.1 326.186 310.549Q326.086 310.998 325.957 311.44Q325.828 311.882 325.669 312.314Q325.511 312.746 325.324 313.166Q325.137 313.587 324.923 313.994Q324.709 314.401 324.468 314.793Q324.227 315.185 323.96 315.56Q323.693 315.935 323.402 316.291Q323.112 316.648 322.797 316.984Q322.483 317.32 322.148 317.635Q321.812 317.949 321.456 318.241Q321.1 318.532 320.725 318.799Q320.351 319.066 319.959 319.308Q319.568 319.549 319.161 319.764Q318.754 319.979 318.334 320.167Q317.914 320.354 317.482 320.513Q317.051 320.672 316.609 320.802Q316.168 320.932 315.719 321.032Q315.395 321.104 315.067 321.161Q314.739 321.218 314.409 321.259Q314.079 321.299 313.748 321.324Q313.416 321.349 313.084 321.358Q312.752 321.367 312.419 321.36Q312.087 321.353 311.755 321.329Q311.424 321.306 311.094 321.267Q310.763 321.228 310.435 321.173Q310.108 321.118 309.783 321.048Q309.458 320.977 309.137 320.891Q308.816 320.804 308.499 320.703Q308.183 320.601 307.871 320.484Q307.56 320.368 307.255 320.236Q306.949 320.104 306.651 319.958Q306.352 319.812 306.061 319.652Q305.77 319.491 305.487 319.317Q305.203 319.143 304.929 318.955Q304.655 318.767 304.389 318.567Q304.124 318.366 303.869 318.153Q303.614 317.94 303.37 317.714Q303.125 317.489 302.892 317.252Q302.658 317.015 302.436 316.768Q302.215 316.52 302.005 316.262Q301.796 316.004 301.599 315.736Q301.402 315.468 301.218 315.191Q301.034 314.914 300.864 314.628Q300.694 314.342 300.538 314.049Q300.381 313.755 300.239 313.454Q300.097 313.154 299.97 312.847Q299.843 312.539 299.73 312.226Q299.618 311.913 299.521 311.595Q299.424 311.277 299.342 310.955Q299.26 310.633 299.194 310.307Q299.128 309.981 299.078 309.652Q299.027 309.323 298.993 308.993Q298.958 308.662 298.94 308.33Q298.921 307.998 298.919 307.665Q298.917 307.333 298.93 307.001Q298.944 306.668 298.973 306.337Q299.003 306.006 299.048 305.676Q299.093 305.347 299.155 305.02Q299.216 304.693 299.293 304.37Q299.37 304.046 299.462 303.727Q299.555 303.408 299.662 303.093Q299.77 302.778 299.893 302.469Q300.015 302.16 300.153 301.857Q300.29 301.555 300.442 301.259Q300.594 300.963 300.76 300.675Q300.926 300.387 301.105 300.107Q301.285 299.827 301.478 299.556Q301.671 299.285 301.876 299.024Q302.082 298.763 302.3 298.512Q302.518 298.261 302.748 298.02Q302.978 297.78 303.219 297.551Q303.46 297.322 303.712 297.105Q303.964 296.888 304.226 296.684Q304.488 296.479 304.76 296.287Q305.031 296.096 305.312 295.917Q305.592 295.739 305.881 295.574Q306.17 295.409 306.466 295.259Q306.763 295.108 307.066 294.972Q307.369 294.836 307.679 294.714Q307.988 294.593 308.303 294.486Q308.618 294.38 308.938 294.289Z"/>
	<path transform="matrix(0.14652 0 0 0.146484 6.10352e-05 0)" d="M358.856 294.307Q359.182 294.242 359.51 294.192Q359.838 294.143 360.168 294.11Q360.499 294.076 360.83 294.059Q361.162 294.041 361.494 294.04Q361.826 294.038 362.157 294.053Q362.489 294.068 362.82 294.098Q363.15 294.129 363.479 294.175Q363.808 294.222 364.134 294.284Q364.46 294.347 364.782 294.425Q365.105 294.503 365.424 294.597Q365.742 294.69 366.056 294.799Q366.369 294.908 366.677 295.032Q366.985 295.156 367.287 295.295Q367.589 295.433 367.883 295.586Q368.178 295.739 368.465 295.907Q368.752 296.074 369.03 296.254Q369.309 296.435 369.578 296.629Q369.847 296.823 370.107 297.03Q370.367 297.237 370.616 297.456Q370.866 297.675 371.104 297.906Q371.343 298.137 371.57 298.379Q371.797 298.622 372.012 298.875Q372.227 299.128 372.43 299.391Q372.633 299.654 372.822 299.926Q373.012 300.199 373.188 300.48Q373.365 300.761 373.527 301.051Q373.69 301.34 373.838 301.637Q373.987 301.934 374.12 302.238Q374.254 302.542 374.373 302.852Q374.492 303.162 374.596 303.478Q374.7 303.793 374.789 304.113Q374.877 304.433 374.95 304.757Q375.023 305.081 375.08 305.408Q375.137 305.735 375.179 306.065Q375.22 306.394 375.246 306.725Q375.271 307.056 375.28 307.388Q375.29 307.72 375.283 308.052Q375.277 308.384 375.254 308.715Q375.231 309.047 375.192 309.376Q375.154 309.706 375.099 310.034Q375.045 310.361 374.974 310.686Q374.904 311.01 374.818 311.331Q374.732 311.652 374.631 311.968Q374.53 312.284 374.413 312.595Q374.297 312.906 374.165 313.211Q374.034 313.516 373.888 313.815Q373.742 314.113 373.582 314.404Q373.422 314.695 373.248 314.977Q373.074 315.26 372.886 315.534Q372.699 315.808 372.498 316.073Q372.298 316.337 372.085 316.592Q371.872 316.847 371.647 317.091Q371.422 317.335 371.185 317.568Q370.948 317.801 370.701 318.022Q370.453 318.243 370.195 318.452Q369.937 318.661 369.669 318.857Q369.401 319.054 369.125 319.237Q368.848 319.42 368.562 319.589Q368.277 319.759 367.983 319.914Q367.69 320.07 367.389 320.211Q367.089 320.352 366.782 320.479Q366.475 320.605 366.162 320.716Q365.85 320.828 365.532 320.924Q365.214 321.02 364.892 321.101Q364.449 321.212 364 321.293Q363.551 321.375 363.097 321.426Q362.644 321.477 362.188 321.498Q361.732 321.52 361.276 321.51Q360.819 321.501 360.365 321.462Q359.91 321.422 359.459 321.352Q359.008 321.283 358.562 321.183Q358.117 321.084 357.679 320.955Q357.241 320.826 356.813 320.669Q356.384 320.511 355.967 320.325Q355.55 320.14 355.146 319.927Q354.743 319.714 354.354 319.474Q353.965 319.235 353.593 318.97Q353.222 318.706 352.868 318.417Q352.514 318.128 352.181 317.817Q351.847 317.505 351.535 317.172Q351.223 316.839 350.933 316.486Q350.644 316.133 350.379 315.761Q350.113 315.39 349.873 315.002Q349.633 314.613 349.419 314.21Q349.206 313.807 349.019 313.39Q348.833 312.973 348.674 312.545Q348.516 312.117 348.386 311.679Q348.256 311.242 348.156 310.796Q348.056 310.351 347.985 309.9Q347.914 309.449 347.874 308.994Q347.833 308.539 347.823 308.083Q347.813 307.626 347.833 307.17Q347.853 306.714 347.904 306.261Q347.954 305.807 348.034 305.357Q348.115 304.908 348.225 304.465Q348.335 304.022 348.474 303.587Q348.613 303.152 348.781 302.728Q348.949 302.303 349.144 301.89Q349.34 301.478 349.562 301.079Q349.785 300.681 350.034 300.298Q350.282 299.915 350.555 299.549Q350.829 299.183 351.126 298.837Q351.423 298.49 351.742 298.164Q352.062 297.838 352.402 297.533Q352.742 297.229 353.102 296.948Q353.462 296.667 353.84 296.411Q354.217 296.154 354.611 295.924Q355.005 295.693 355.413 295.489Q355.822 295.285 356.243 295.108Q356.664 294.932 357.095 294.783Q357.527 294.635 357.968 294.516Q358.408 294.397 358.856 294.307Z"/>
	<path fill="#FEFEFE" transform="matrix(0.14652 0 0 0.146484 6.10352e-05 0)" d="M357.931 297.658Q358.176 297.57 358.425 297.494Q358.673 297.418 358.926 297.354Q359.178 297.291 359.433 297.24Q359.688 297.188 359.945 297.15Q360.202 297.111 360.461 297.086Q360.72 297.06 360.98 297.047Q361.24 297.034 361.5 297.034Q361.76 297.034 362.02 297.047Q362.28 297.059 362.539 297.085Q362.797 297.11 363.055 297.148Q363.312 297.187 363.567 297.238Q363.822 297.288 364.075 297.352Q364.327 297.415 364.576 297.491Q364.825 297.567 365.069 297.655Q365.314 297.743 365.554 297.843Q365.795 297.942 366.03 298.054Q366.265 298.166 366.494 298.289Q366.723 298.412 366.946 298.546Q367.169 298.68 367.385 298.825Q367.601 298.97 367.809 299.126Q368.018 299.281 368.218 299.447Q368.419 299.613 368.611 299.788Q368.803 299.963 368.987 300.148Q369.17 300.332 369.344 300.526Q369.518 300.719 369.682 300.921Q369.847 301.123 370.001 301.332Q370.155 301.542 370.299 301.759Q370.442 301.976 370.575 302.199Q370.708 302.423 370.829 302.653Q370.951 302.883 371.061 303.119Q371.171 303.355 371.269 303.596Q371.368 303.837 371.454 304.082Q371.54 304.327 371.614 304.577Q371.689 304.826 371.75 305.079Q371.812 305.332 371.861 305.587Q371.91 305.843 371.947 306.1Q371.984 306.358 372.007 306.617Q372.031 306.876 372.042 307.136Q372.053 307.396 372.051 307.656Q372.05 307.916 372.035 308.176Q372.02 308.436 371.993 308.695Q371.966 308.953 371.925 309.21Q371.885 309.467 371.833 309.722Q371.78 309.977 371.715 310.229Q371.649 310.481 371.572 310.729Q371.494 310.977 371.404 311.222Q371.315 311.466 371.213 311.705Q371.111 311.945 370.998 312.179Q370.885 312.413 370.76 312.642Q370.635 312.87 370.5 313.092Q370.364 313.314 370.217 313.529Q370.07 313.744 369.913 313.951Q369.756 314.158 369.589 314.358Q369.422 314.557 369.246 314.748Q369.069 314.939 368.883 315.121Q368.697 315.303 368.503 315.476Q368.308 315.648 368.105 315.811Q367.902 315.974 367.692 316.127Q367.481 316.279 367.263 316.421Q367.045 316.564 366.82 316.695Q366.596 316.826 366.365 316.946Q366.134 317.066 365.898 317.174Q365.661 317.282 365.42 317.379Q365.178 317.475 364.932 317.56Q364.688 317.644 364.441 317.715Q364.193 317.787 363.943 317.847Q363.692 317.906 363.439 317.954Q363.185 318.001 362.93 318.036Q362.675 318.07 362.418 318.093Q362.161 318.115 361.904 318.125Q361.646 318.135 361.388 318.132Q361.131 318.129 360.874 318.113Q360.616 318.098 360.36 318.07Q360.104 318.042 359.85 318.002Q359.595 317.961 359.343 317.908Q359.091 317.856 358.841 317.79Q358.592 317.725 358.346 317.648Q358.1 317.571 357.858 317.482Q357.617 317.393 357.379 317.292Q357.142 317.191 356.91 317.079Q356.678 316.966 356.452 316.843Q356.226 316.72 356.006 316.585Q355.786 316.451 355.573 316.306Q355.36 316.161 355.154 316.006Q354.949 315.851 354.751 315.685Q354.553 315.52 354.363 315.346Q354.174 315.171 353.993 314.988Q353.812 314.804 353.64 314.612Q353.468 314.42 353.306 314.219Q353.144 314.019 352.992 313.811Q352.84 313.603 352.698 313.388Q352.556 313.173 352.425 312.951Q352.294 312.729 352.174 312.501Q352.054 312.273 351.945 312.039Q351.836 311.805 351.739 311.567Q351.642 311.328 351.556 311.085Q351.47 310.842 351.397 310.595Q351.323 310.348 351.262 310.097Q351.201 309.847 351.151 309.594Q351.102 309.341 351.066 309.086Q351.029 308.831 351.005 308.574Q350.98 308.318 350.969 308.06Q350.957 307.802 350.958 307.545Q350.959 307.287 350.973 307.03Q350.986 306.772 351.012 306.516Q351.038 306.259 351.077 306.004Q351.115 305.75 351.166 305.497Q351.217 305.244 351.281 304.994Q351.344 304.745 351.419 304.498Q351.495 304.252 351.582 304.009Q351.669 303.767 351.768 303.529Q351.867 303.291 351.978 303.058Q352.088 302.825 352.21 302.598Q352.332 302.371 352.465 302.15Q352.597 301.929 352.741 301.715Q352.884 301.5 353.038 301.293Q353.191 301.086 353.355 300.887Q353.519 300.688 353.692 300.497Q353.865 300.306 354.047 300.124Q354.229 299.942 354.42 299.769Q354.611 299.595 354.81 299.432Q355.009 299.268 355.216 299.114Q355.423 298.961 355.637 298.817Q355.851 298.674 356.072 298.541Q356.293 298.408 356.52 298.287Q356.747 298.165 356.98 298.054Q357.213 297.944 357.451 297.844Q357.689 297.745 357.931 297.658Z"/>
	<path fill="#2E2E47" transform="matrix(0.14652 0 0 0.146484 6.10352e-05 0)" d="M258.307 562.726C260.11 495.67 258.598 428.318 258.628 361.228L258.83 313.996C258.788 304.124 257.685 293.866 259.105 284.078C260.132 277.002 263.143 269.625 268.442 264.67C273.439 259.997 279.821 257.759 286.53 257.328C300.256 256.448 313.744 257.244 327.448 257.366L386.691 257.35L604.812 257.247L829.659 257.137L891.946 257.201C902.15 257.112 912.316 255.996 922.523 256.615C932.271 257.206 941.891 260.06 948.601 267.587C953.135 272.671 954.856 277.249 955.375 284.029C956.077 293.19 955.631 302.578 955.576 311.764L955.325 360.012L955.261 511.189L955.085 679.46L955.172 734.526C955.191 745.215 955.601 756.041 954.919 766.705C954.309 776.251 951.843 785.623 944.388 792.157C938.228 797.556 931.278 799.835 923.198 800.446C913.852 801.152 904.464 800.341 895.112 800.182Q874.456 800.027 853.8 800.084L693.627 799.998L528.792 799.957L485.352 799.947C475.025 800.017 464.681 800.509 454.368 799.796C453.56 799.741 452.808 799.632 452.019 799.447C443.16 796.419 433.298 797.737 424.107 798.03C423.005 795.02 422.415 791.84 421.719 788.717L772.74 788.574L873.463 788.245C889.43 788.242 905.741 789.714 921.664 788.413C927.408 787.944 932.694 786.75 936.991 782.626C940.533 779.226 942.478 774.696 942.957 769.853C944.488 754.354 943.242 738.45 943.18 722.898L943.132 636.99L943.076 349.338C918.743 348.997 894.407 349.546 870.079 349.176C874.628 347.971 880.466 348.476 885.197 348.464L916.075 348.506C921.901 348.519 928.183 349.025 933.946 348.151L933.605 347.351C928.524 345.789 921.47 346.697 916.112 346.717L877.484 346.85C870.046 346.867 862.027 347.414 854.69 346.286C854.491 346.255 854.293 346.219 854.094 346.185L943.195 346.237L943.345 305.829C943.4 298.315 944.354 290.202 942.946 282.815C942.194 278.864 940.566 274.75 937.615 271.927C936.254 270.626 934.433 269.926 932.664 269.37C920.775 265.628 891.513 267.837 878.022 267.89L809.685 267.936L487.731 267.981L358.348 267.97C337.115 267.966 314.158 266.751 293.129 268.115C285.957 268.581 279.285 270.097 274.392 275.741C271.843 278.682 270.82 282.421 270.254 286.188C268.474 298.049 269.981 311.031 270.013 323.073C270.031 330.148 269.312 337.446 269.896 344.49C269.965 345.328 270.203 345.788 270.637 346.488L271.682 346.825L272.18 348.138C279.425 349.286 287.386 348.639 294.721 348.615L332.155 348.565L497.694 348.558L544.912 348.518C553.782 348.52 563.478 347.85 572.214 349.216C538.065 349.832 503.816 349.26 469.657 349.26L269.909 349.276L269.772 428.205C269.757 440.346 270.649 453.116 269.742 465.17C270.015 481.422 269.325 497.63 269.365 513.873C270.053 522.068 270.975 541.679 269.328 549.162C266.531 553.318 267.439 564.746 266.513 570.085C264.393 568.34 259.336 565.083 258.307 562.726Z"/>
	<path transform="matrix(0.14652 0 0 0.146484 6.10352e-05 0)" d="M268.937 396.329C269.366 405.755 267.848 461.677 269.742 465.17C270.015 481.422 269.325 497.63 269.365 513.873C268.416 521.534 269.421 529.502 268.647 537.249C266.222 530.666 266.595 421.915 267.345 406.706C267.52 403.164 268.134 399.778 268.937 396.329Z"/>
	<path transform="matrix(0.14652 0 0 0.146484 6.10352e-05 0)" d="M670.184 563.653Q696.459 563.279 722.714 564.386C724.239 578.196 724.004 593.395 722.333 607.176C704.243 608.97 684.481 607.354 666.195 607.358L547.533 607.469L493.294 607.58C492.905 593.067 493.042 578.614 493.33 564.1C552.27 563.689 611.258 564.8 670.184 563.653Z"/>
	<path fill="#BC2BFF" transform="matrix(0.14652 0 0 0.146484 6.10352e-05 0)" d="M497.829 567.005C571.771 565.855 645.876 566.757 719.836 566.7C719.909 577.721 721.154 593.473 719.534 604.012L718.514 604.699L495.987 604.782C495.942 594.791 494.623 576.737 496.392 567.656L497.829 567.005Z"/>
	<path transform="matrix(0.14652 0 0 0.146484 6.10352e-05 0)" d="M493.185 621.355L722.541 621.293C723.004 634.751 723.205 647.93 722.36 661.389C696.3 663.11 668.224 661.888 641.981 661.877L493.17 661.783L493.185 621.355Z"/>
	<path fill="#FEFEFE" transform="matrix(0.14652 0 0 0.146484 6.10352e-05 0)" d="M512.472 623.65C536.158 623.14 559.938 623.569 583.633 623.568L719.844 623.568L719.773 658.716L703.495 658.778Q599.684 659.519 495.873 658.718L495.858 623.912L512.472 623.65Z"/>
	<path transform="matrix(0.14652 0 0 0.146484 6.10352e-05 0)" d="M493.346 677.288L648.357 677.326L692.138 677.274C702.231 677.251 712.591 676.753 722.615 678.069C724.523 690.627 723.26 704.724 722.446 717.352C696.96 718.288 671.188 717.371 645.673 717.371L493.234 717.443Q492.946 697.364 493.346 677.288Z"/>
	<path fill="#FEFEFE" transform="matrix(0.14652 0 0 0.146484 6.10352e-05 0)" d="M495.864 680.01L719.939 680.243L719.923 714.713L495.981 714.716C495.766 703.157 495.885 691.571 495.864 680.01Z"/>
	<path fill="#0C445B" fill-opacity="0.69803923" transform="matrix(0.14652 0 0 0.146484 6.10352e-05 0)" d="M639.342 397.822C641.67 397.634 643.71 397.721 645.904 398.605C648.066 399.477 648.741 400.415 649.565 402.491C649.237 405.435 648.071 408.217 646.876 410.902C641.048 423.997 589.076 527.599 581.685 534.181C581.47 534.196 581.254 534.214 581.038 534.226C578.278 534.381 574.558 533.982 572.536 531.802C571.839 531.051 571.384 530.1 571.408 529.082C571.486 525.807 573.646 521.506 575.006 518.564C581.978 503.473 590.499 488.859 598.161 474.094C604.437 461.999 632.285 404.262 639.342 397.822Z"/>
	<path transform="matrix(0.14652 0 0 0.146484 6.10352e-05 0)" d="M659.302 433.564C667.672 436.726 685.695 456.557 693.287 463.927C687.71 469.471 681.479 474.381 675.436 479.406C673.56 481.048 671.761 482.787 669.925 484.474C666.688 487.45 660.984 493.886 656.384 493.693L655.27 492.169C653.944 484.725 656.862 440.558 659.302 433.564Z"/>
	<path fill="#0C445B" fill-opacity="0.69803923" transform="matrix(0.14652 0 0 0.146484 6.10352e-05 0)" d="M660.639 437.761C670.267 442.735 681.275 456.23 689.018 464.111C684.184 468.664 678.94 472.856 673.861 477.137Q665.538 484.066 657.738 491.578C658.342 473.626 659.835 455.708 660.639 437.761Z"/>
	<path transform="matrix(0.14652 0 0 0.146484 6.10352e-05 0)" d="M559.305 434.489C560.766 435.336 561.757 435.675 562.186 437.482C563.635 443.581 559.169 485.197 556.332 490.443L555.052 490.685C549.769 489.353 544.739 483.656 540.748 480.077Q532.462 473.395 524.248 466.625C535.295 455.264 546.726 444.16 559.305 434.489Z"/>
	<path fill="#0C445B" fill-opacity="0.69803923" transform="matrix(0.14652 0 0 0.146484 6.10352e-05 0)" d="M559.085 438.643L559.473 439.031C561.458 446.878 556.152 478.872 554.946 488.432Q548.533 483.178 542.178 477.855L528.442 466.41C538.123 456.667 548.217 447.058 559.085 438.643Z"/>
	<path transform="matrix(0.14652 0 0 0.146484 6.10352e-05 0)" d="M266.513 570.085C267.439 564.746 266.531 553.318 269.328 549.162Q269.462 561.45 269.315 573.738C273.411 579.66 277.577 585.483 279.55 592.513C283.523 603.051 284.156 616.09 279.241 626.51C279.17 626.661 279.085 626.804 279.007 626.952L276.552 633.868C286.293 627.571 293.236 623.404 305.247 626.097C336.116 633.019 366.308 674.771 382.024 700.06C397.596 725.116 416.249 759.44 421.719 788.717C422.415 791.84 423.005 795.02 424.107 798.03C433.298 797.737 443.16 796.419 452.019 799.447Q438.869 799.699 425.717 799.632C430.34 816.561 429.869 836.806 421.025 852.335C410.242 871.267 391.598 881.056 373.98 892.284C395.639 895.87 419.846 892.467 440.702 899.998C445.413 896.774 449.705 892.597 454.496 889.617C456.918 887.837 460.093 884.886 463.261 884.984C469.21 885.167 543.402 944.477 550.609 952.462C542.474 955.426 534.997 954.764 526.541 954.079L329.526 953.228C318.816 953.216 308.081 953.115 297.378 953.464C281.191 953.99 263.439 955.448 247.413 953.193C236.866 951.709 226.276 947.648 218.079 940.732C207.994 932.223 205.885 923.124 204.725 910.582C203.472 919.489 202.571 927.908 202.785 936.922C202.691 944.65 202.557 950.049 197.241 956.078C188.84 957.849 178.121 956.751 169.431 956.78C142.394 956.872 115.437 956.35 88.41 955.79C90.4294 950.278 92.4761 945.61 96.1414 940.988C115.462 924.032 137.416 926.344 158.08 915.693L156.989 907.845Q153.712 907.181 150.446 906.469Q149.943 904.405 149.524 902.323C143.668 873.572 135.079 822.971 142.365 794.766C143.763 789.356 145.814 785.392 148.89 780.734Q135.862 777.483 122.771 774.494C113.707 771.982 79.0895 763.703 74.8281 757.325C74.0299 756.13 74.2257 755.834 74.5382 754.538C83.0176 748.081 124.088 769.595 129.811 767.719C130.055 767.639 130.289 767.527 130.528 767.431C129.609 765.979 128.702 763.598 128.771 761.87C128.874 759.333 130.718 757.368 132.552 755.824C136.908 752.157 142.813 750.244 148.093 748.314C175.07 738.45 180.691 745.056 206.843 747.494C216.324 748.377 225.896 747.827 235.451 748.753C239.278 735.785 243.508 722.938 247.397 709.987C241.94 703.163 235.718 695.559 234.649 686.562C233.507 676.95 239.496 670.008 245.129 663.024C241.379 656.826 237.751 651.901 232.325 647.004C227.263 649.098 221.358 651.562 215.797 650.112C206.288 647.631 203.639 636.143 198.014 629.435C194.92 625.746 190.553 623.317 188.086 619.044C182.303 609.027 179.739 595.882 182.77 584.62C184.667 577.574 188.761 571.098 195.256 567.494C203.72 562.797 211.787 564.397 220.58 566.993C225.99 562.843 230.831 559.846 237.716 558.815C244.211 557.842 252.866 558.777 258.307 562.726C259.336 565.083 264.393 568.34 266.513 570.085ZM204.732 908.332C209.06 900.001 214.41 892.622 220.856 885.795C227.018 879.187 233.369 873.023 240.411 867.352C235.914 862.825 203.562 833.834 200.159 832.168Q201.284 851.61 203.046 871.004C204.096 883.326 205.829 895.98 204.732 908.332ZM318.63 646.524C320.038 658.74 317.185 669.636 313.781 681.22C313.892 681.2 314.014 681.212 314.114 681.161C315.627 680.378 316.091 677.595 316.898 676.061L317.636 677.128C321.943 666.457 322.312 653.388 320.254 642.243L318.63 646.524Z"/>
	<path fill="#2E2E47" transform="matrix(0.14652 0 0 0.146484 6.10352e-05 0)" d="M220.715 571.485C226.919 566.461 233.333 562.491 241.533 562.101C253.942 561.511 265.065 569.823 271.111 580.202C273.429 584.183 275.234 589.716 278.627 592.797L279.55 592.513C283.523 603.051 284.156 616.09 279.241 626.51C279.17 626.661 279.085 626.804 279.007 626.952C276.885 627.789 275.232 629.524 273.42 630.877C270.982 632.697 268.51 633.841 265.397 633.294C258.248 632.038 252.876 623.012 248.908 617.608C252.162 615.272 255.267 613.246 257.053 609.488C258.485 606.474 259.12 602.797 257.824 599.626C257.023 597.667 255.595 596.233 253.564 595.575C249.359 594.213 245.302 596.184 241.649 598.059C238.155 597.097 234.601 596.161 231.282 594.682C223.305 591.127 215.019 584.593 205.849 585.312C203.304 585.512 201.055 586.373 199.424 588.395C192.052 597.532 195.17 616.407 196.241 627.118C193.246 621.512 190.26 615.919 188.221 609.878C184.9 600.035 183.825 587.983 188.728 578.45C191.19 573.662 195.155 569.926 200.337 568.287C207.599 565.99 214.204 568.201 220.715 571.485Z"/>
	<path fill="#FEFEFE" transform="matrix(0.14652 0 0 0.146484 6.10352e-05 0)" d="M135.791 927.201C138.056 928.268 140.109 928.997 142.615 929.222C149.362 929.829 156.502 928.815 163.256 928.421Q181.704 927.44 200.132 926.127C200.393 929.51 200.384 932.932 200.456 936.325L202.785 936.922C202.691 944.65 202.557 950.049 197.241 956.078C188.84 957.849 178.121 956.751 169.431 956.78C142.394 956.872 115.437 956.35 88.41 955.79C90.4294 950.278 92.4761 945.61 96.1414 940.988L98.6327 943.686C107.365 933.179 123.207 930.237 135.791 927.201Z"/>
	<path fill="#2E2E47" transform="matrix(0.14652 0 0 0.146484 6.10352e-05 0)" d="M200.456 936.325L202.785 936.922C202.691 944.65 202.557 950.049 197.241 956.078C188.84 957.849 178.121 956.751 169.431 956.78C142.394 956.872 115.437 956.35 88.41 955.79C90.4294 950.278 92.4761 945.61 96.1414 940.988L98.6327 943.686C108.906 946.024 125.499 944.729 136.307 944.793C152.458 944.888 169.77 946.083 185.836 944.381C190.878 943.847 194.934 942.558 199.658 940.69L200.456 936.325Z"/>
	<path fill="#19171A" transform="matrix(0.14652 0 0 0.146484 6.10352e-05 0)" d="M200.456 936.325L202.785 936.922C202.691 944.65 202.557 950.049 197.241 956.078C197.418 950.944 198.712 945.734 199.658 940.69L200.456 936.325Z"/>
	<path fill="#FEFEFE" transform="matrix(0.14652 0 0 0.146484 6.10352e-05 0)" d="M454.496 889.617C456.918 887.837 460.093 884.886 463.261 884.984C469.21 885.167 543.402 944.477 550.609 952.462C542.474 955.426 534.997 954.764 526.541 954.079C525.26 952.788 524.109 952.101 522.48 951.305L506.111 951.176C485.31 935.258 465.237 918.16 445.014 901.51L456.945 892.177C455.919 891.421 455.289 890.596 454.496 889.617Z"/>
	<path fill="#2E2E47" transform="matrix(0.14652 0 0 0.146484 6.10352e-05 0)" d="M454.496 889.617C456.918 887.837 460.093 884.886 463.261 884.984C469.21 885.167 543.402 944.477 550.609 952.462C542.474 955.426 534.997 954.764 526.541 954.079C525.26 952.788 524.109 952.101 522.48 951.305L531.934 951.066C522.967 942.746 513.022 935.851 503.259 928.53C494.527 921.982 486.015 915.138 477.329 908.527C470.444 903.287 463.114 898.262 456.945 892.177C455.919 891.421 455.289 890.596 454.496 889.617Z"/>
	<path fill="#2E2E47" transform="matrix(0.14652 0 0 0.146484 6.10352e-05 0)" d="M122.771 774.494C113.707 771.982 79.0895 763.703 74.8281 757.325C74.0299 756.13 74.2257 755.834 74.5382 754.538C83.0176 748.081 124.088 769.595 129.811 767.719C130.055 767.639 130.289 767.527 130.528 767.431C135.999 768.361 150.663 775.301 157.658 777.506C168.331 780.871 240.97 798.213 244.271 802.388C244.861 803.134 244.638 803.614 244.617 804.517C243.741 805.968 243.184 807.392 241.685 808.24C234.862 806.745 228.208 804.072 221.509 802.052Q193.299 793.825 165.446 784.459C153.805 780.657 141.814 775.978 129.897 773.353C128.024 772.94 125.863 772.408 124.103 773.449C123.536 773.784 123.245 774.075 122.771 774.494Z"/>
	<path fill="#0C445B" fill-opacity="0.69803923" transform="matrix(0.14652 0 0 0.146484 6.10352e-05 0)" d="M296.057 824.499C303.529 825.961 310.658 830.981 317.575 834.05C323.991 836.896 331.161 838.975 337.943 840.774C359.068 846.377 384.098 849.034 405.201 842.171C412.395 839.831 418.85 836.269 425.351 832.485C423.248 839.039 421.047 845.383 417.618 851.396C411.172 862.702 401.218 871.809 390.355 878.813C383.575 883.184 374.717 889.519 366.915 891.705C358.141 894.162 346.356 892.547 337.217 892.306C318.695 891.818 295.206 891.422 277.296 896.526C275.841 896.941 274.128 897.229 273.371 898.58C275.892 900.278 297.624 896.043 302.927 895.607C338.846 892.655 374.604 895.109 410.412 898.128C419.66 899.488 429.196 900.169 438.514 900.87Q438.693 925.833 439.402 950.787C400.665 952.078 361.786 951.234 323.031 951.292L279.281 951.395C268.993 951.422 258.622 951.769 248.37 950.796C235.819 949.604 221.66 942.167 213.679 932.345C209.367 927.039 206.761 920.541 207.519 913.631C208.298 906.534 211.967 900.327 216.224 894.758C226.268 881.617 239.677 871.126 252.244 860.526Q273.858 842.156 296.057 824.499Z"/>
	<path fill="#FEFEFE" transform="matrix(0.14652 0 0 0.146484 6.10352e-05 0)" d="M320.254 642.243L318.052 634.568C329.931 640.864 339.326 649.834 348.433 659.572C381.365 694.785 404.304 739.953 418.368 785.792C422.511 799.294 425.702 813.053 425.878 827.238C412.202 840.623 393.128 843.113 374.753 842.881C354.102 842.62 311.442 834.02 297.011 819.416C286.779 809.061 284.899 782.135 280.046 767.944C292.236 743.103 311.988 703.175 317.636 677.128C321.943 666.457 322.312 653.388 320.254 642.243Z"/>
	<path fill="#0C445B" fill-opacity="0.69803923" transform="matrix(0.14652 0 0 0.146484 6.10352e-05 0)" d="M149.277 781.457C162.32 786.562 234.712 810.513 243.732 809.698C245.363 808.399 246.637 806.32 246.961 804.238C247.194 802.74 246.828 802.2 246.204 800.89L243.962 799.267C244.992 797.733 245.381 795.875 245.883 794.114C249.601 794.66 254.312 794.76 257.786 796.065C268.436 800.065 286.817 813.908 294.666 822.586C276.376 835.66 259.39 850.464 242.365 865.122Q220.8 848.191 200.297 829.989C202.118 824.752 206.083 816.738 206.121 811.367L205.236 810.935C201.386 813.639 199.797 819.423 199.053 823.864C196.987 836.204 200.781 856.878 202.059 870.104Q203.649 886.966 204.526 903.881C187.189 905.083 169.981 905.366 152.612 905.445C145.581 868.514 133.704 816.88 149.277 781.457Z"/>
	<path fill="#FEFEFE" transform="matrix(0.14652 0 0 0.146484 6.10352e-05 0)" d="M238.279 749.119C243.38 732.689 248.949 716.407 254.081 699.987C259.757 681.828 264.268 661.896 273.588 645.248C278.166 637.071 284.128 630.806 293.385 628.316C298.649 626.9 304.249 627.405 308.931 630.352C314.925 634.126 317.12 639.926 318.63 646.524C320.038 658.74 317.185 669.636 313.781 681.22C310.072 688.596 307.677 697.583 304.76 705.369C296.169 728.304 280.841 767.88 265.36 785.295C262.387 788.64 259.333 790.824 255.466 793.042C252.944 792.545 250.415 792.134 247.88 791.713C244.409 791.138 237.728 790.645 235.057 788.363C229.391 783.521 232.706 762.077 229.923 754.465C229.323 752.825 228.15 751.284 227.14 749.871C233.393 751.333 240.195 755.91 246.445 755.957L246.531 755.14C244.312 752.336 241.335 750.852 238.279 749.119Z"/>
	<path fill="#B6B4B5" transform="matrix(0.14652 0 0 0.146484 6.10352e-05 0)" d="M164.872 746.225C176.188 746.583 218.779 750.742 227.332 755.46C229.459 758.522 229.203 780.605 231.44 788.371Q216.538 783.783 201.311 780.426C188.22 778.52 176.696 773.61 164.834 768.021C160.634 769.463 156.476 771.051 152.304 772.574C145.975 770.753 135.72 768.791 131.677 763.328C131.585 762.217 131.37 761.99 132.002 760.992C135.924 754.794 157.441 748.037 164.872 746.225Z"/>
	<path fill="#B6B4B5" transform="matrix(0.14652 0 0 0.146484 6.10352e-05 0)" d="M205.679 587.956C214.904 587.443 232.415 598.528 242.068 602.2C243.248 601.03 244.42 599.861 245.921 599.107C247.722 598.203 249.943 597.837 251.852 598.631C253.392 599.271 254.525 600.52 255.132 602.063C255.929 604.088 255.685 606.476 254.811 608.434C253.088 612.294 249.785 613.581 246.128 615.018C244.796 622.242 242.81 627.935 239.333 634.42C234.167 641.416 228.931 644.889 220.915 648.038C216.575 646.189 212.962 644.126 209.627 640.738C201.164 632.14 197.019 618.783 197.284 606.883C197.46 598.941 199.88 593.413 205.679 587.956Z"/>
	<path fill="#B6B4B5" transform="matrix(0.14652 0 0 0.146484 6.10352e-05 0)" d="M441.303 903.009C449.272 906.578 457.261 915.598 464.105 921.18C476.182 931.03 488.629 940.472 500.442 950.637L442.507 950.776Q441.755 926.896 441.303 903.009Z"/>
	<path fill="#B6B4B5" transform="matrix(0.14652 0 0 0.146484 6.10352e-05 0)" d="M186.79 907.699C190.711 907.393 194.694 907.399 198.627 907.278C198.536 912.597 199.131 917.978 199.515 923.283C182.668 923.734 165.764 925.187 148.956 926.385C145.149 926.84 141.232 926.538 137.406 926.408C143.679 924.92 154.527 923.747 158.739 918.733C161.404 915.563 160.388 911.899 159.978 908.107Q173.387 908.121 186.79 907.699Z"/>
	<path fill="#FEFEFE" transform="matrix(0.14652 0 0 0.146484 6.10352e-05 0)" d="M256.899 653.826C259.376 656.332 260.259 660.93 262.918 663.935C260.812 671.221 252.317 701.978 248.448 705.587L247.318 704.761C244.062 699.48 240.378 694.13 239.149 687.943C236.665 675.434 250.32 663.487 256.899 653.826Z"/>
	<path fill="#B6B4B5" transform="matrix(0.14652 0 0 0.146484 6.10352e-05 0)" d="M248.032 621.055C254.072 626.598 257.668 631.997 264.94 636.427C259.276 643.262 254.918 651.182 250.28 658.732L248.372 660.987C247.199 660.378 238.234 645.635 236.356 643.09C242.236 635.965 245.473 629.944 248.032 621.055Z"/>
	<path fill="#FEFEFE" transform="matrix(0.14652 0 0 0.146484 6.10352e-05 0)" d="M277.784 772.415C280.962 775.371 287.752 807.669 289.495 814.039L280.242 807.219C273.917 802.525 267.349 798.336 260.648 794.205C267.443 787.569 272.59 780.311 277.784 772.415Z"/>
	<path fill="#B6B4B5" transform="matrix(0.14652 0 0 0.146484 6.10352e-05 0)" d="M164.864 771.503C186.371 781.864 222.168 789.012 245.883 794.114C245.381 795.875 244.992 797.733 243.962 799.267C215.234 789.128 184.752 782.259 155.267 774.608C158.384 773.391 161.667 772.494 164.864 771.503Z"/>
	<path fill="#FEFEFE" transform="matrix(0.14652 0 0 0.146484 6.10352e-05 0)" d="M271.329 634.377C273.035 634.465 274.288 634.464 275.492 635.674C275.341 637.482 274.627 638.375 273.644 639.843C269.578 645.911 266.745 652.136 263.915 658.83C263.634 659.098 262.976 659.335 262.619 659.508C261.117 657.658 260.521 655.192 260.502 652.834C260.441 645.217 266.293 639.329 271.329 634.377Z"/>
	<path transform="matrix(0.14652 0 0 0.146484 6.10352e-05 0)" d="M320.254 642.243C322.312 653.388 321.943 666.457 317.636 677.128L316.898 676.061C316.091 677.595 315.627 680.378 314.114 681.161C314.014 681.212 313.892 681.2 313.781 681.22C317.185 669.636 320.038 658.74 318.63 646.524L320.254 642.243Z"/>
	<path fill="#0C445B" fill-opacity="0.69803923" transform="matrix(0.14652 0 0 0.146484 6.10352e-05 0)" d="M1067.15 515.905C1077.28 518.048 1087.17 521.275 1097.24 523.712C1119.2 529.032 1140.3 530.244 1162.84 528.745C1170.01 528.267 1179.25 528.045 1185.66 524.574C1185.76 524.761 1185.85 524.953 1185.95 525.135C1186.46 526.006 1187.03 526.532 1187.75 527.221L1187.72 528.587L1187.05 527.721C1183.42 527.696 1179.68 529 1176.09 529.663Q1168.19 531.196 1160.15 531.544C1162.92 535.104 1162.54 540.592 1162.02 544.836C1160.69 555.707 1156.46 571.093 1150.5 580.312C1147.8 584.501 1143.51 588.162 1141.45 592.656C1138.97 598.069 1137.96 605.027 1136.58 610.847L1127.58 649.956C1125.71 658.013 1122.9 666.28 1121.55 674.411C1121.36 675.577 1121.61 676.604 1121.71 677.753C1121.72 677.832 1121.69 677.911 1121.69 677.989C1121.42 677.174 1121.26 676.92 1120.6 676.313C1119.72 675.501 1118.68 675.91 1117.54 675.995C1118.12 679.095 1109.17 716.344 1108.11 723.101C1105.82 737.64 1106.41 752.893 1105.97 767.606C1105.7 776.665 1104.67 785.644 1104.3 794.675C1103.85 805.944 1104.12 859.625 1100.2 865.957L1099.61 867.045C1094.91 868.203 1047.87 867.99 1043.7 866.789C1044.2 865.353 1044.38 864.189 1044.32 862.674C1043.77 848.089 1041.58 833.272 1040.19 818.721Q1037.55 788.222 1035.62 757.669Q1034.45 740.024 1034.83 722.345C1035.86 677.725 1041.55 632.771 1049.65 588.907Q1052.94 571.064 1057.23 553.436C1059.49 544.353 1066.09 527.98 1065.63 519.382L1068.49 518.127L1068.72 517.19L1067.15 515.905Z"/>
	<path transform="matrix(0.14652 0 0 0.146484 6.10352e-05 0)" d="M1067.15 515.905C1077.28 518.048 1087.17 521.275 1097.24 523.712C1119.2 529.032 1140.3 530.244 1162.84 528.745C1170.01 528.267 1179.25 528.045 1185.66 524.574C1185.76 524.761 1185.85 524.953 1185.95 525.135C1186.46 526.006 1187.03 526.532 1187.75 527.221L1187.72 528.587L1187.05 527.721C1183.42 527.696 1179.68 529 1176.09 529.663Q1168.19 531.196 1160.15 531.544C1162.92 535.104 1162.54 540.592 1162.02 544.836C1160.69 555.707 1156.46 571.093 1150.5 580.312C1147.8 584.501 1143.51 588.162 1141.45 592.656C1138.97 598.069 1137.96 605.027 1136.58 610.847L1127.58 649.956C1125.71 658.013 1122.9 666.28 1121.55 674.411C1121.36 675.577 1121.61 676.604 1121.71 677.753C1121.72 677.832 1121.69 677.911 1121.69 677.989C1121.42 677.174 1121.26 676.92 1120.6 676.313C1119.72 675.501 1118.68 675.91 1117.54 675.995C1117.62 675.832 1117.7 675.671 1117.77 675.505C1121.02 667.905 1122.41 658.682 1124.42 650.61C1128.46 634.424 1134.11 616.562 1135.99 600.075C1136.18 598.439 1135.95 597.043 1135.4 595.507C1134.6 597.858 1133.14 599.04 1131.13 600.393C1125.2 604.395 1112.59 609.582 1105.41 608.145C1106.67 605.586 1128.6 598.937 1133.38 595.106C1148.89 582.652 1157.1 561.707 1159.31 542.438C1159.62 539.696 1160.09 535.47 1158.12 533.255C1156.26 531.174 1151.57 531.847 1148.98 531.889C1133.27 532.142 1118.16 531.764 1102.8 528.044C1090.76 525.128 1078 520.116 1065.63 519.382L1068.49 518.127L1068.72 517.19L1067.15 515.905Z"/>
	<path fill="#FEFEFE" transform="matrix(0.14652 0 0 0.146484 6.10352e-05 0)" d="M993.851 255.55C999.22 251.34 1000.09 242.598 1003.8 236.89C1005.11 234.879 1006.49 233.084 1008.91 232.577L1010.26 233.475C1012.6 237.898 1012.88 244.702 1013.72 249.678C1015.91 249.128 1018.12 248.718 1020.32 248.287C1022.19 249.419 1023.35 249.536 1025.51 249.552C1029.97 248.439 1033.86 246.909 1038.1 249.399C1038.72 250.513 1039.14 250.932 1038.83 252.259C1038.32 254.399 1036.13 258.05 1034.43 259.471C1035.63 260.156 1037.3 260.868 1038.17 261.923C1039.88 262.727 1041.03 263.007 1041.67 264.987C1042.73 268.297 1041.33 273.294 1039.59 276.246C1039.2 276.921 1038.79 277.326 1038.23 277.864C1038.36 278.805 1038.49 279.742 1038.59 280.686C1038.74 282.123 1039.19 282.623 1039.81 283.847C1040 284.216 1040.23 284.912 1040.37 285.331C1043.81 287.169 1109.1 356.156 1109.8 357.993C1111.71 359.369 1112.64 361.118 1114.29 362.609Q1133.39 366.305 1152.58 369.437C1168.22 371.941 1185.76 373.412 1200.47 379.536C1205.39 381.587 1209.91 384.597 1212.96 389.053C1216.57 394.335 1217.43 400.734 1216.23 406.938C1215.19 412.298 1212.83 417.334 1210.25 422.114C1204.17 433.419 1196.28 443.741 1189.38 454.556C1184.77 461.783 1181.09 469.551 1176.52 476.774C1175.58 478.256 1174.5 479.868 1173.03 480.86C1172.76 481.044 1172.47 481.203 1172.19 481.374C1176.92 486.373 1186.24 515.618 1186.07 522.817C1186.06 523.453 1185.9 523.993 1185.66 524.574C1179.25 528.045 1170.01 528.267 1162.84 528.745C1140.3 530.244 1119.2 529.032 1097.24 523.712C1087.17 521.275 1077.28 518.048 1067.15 515.905C1072.26 509.425 1078.64 488.979 1082.52 480.338C1086.86 470.668 1092.17 461.414 1096.27 451.636C1097.12 449.6 1097.77 447.951 1097.8 445.711C1097.47 445.039 1097.68 445.324 1097 444.745C1094.43 442.545 1091.31 440.139 1089.43 437.303C1080.41 423.695 1094.48 418.487 1095.44 412.632C1095.48 412.405 1095.5 412.176 1095.53 411.947C1096.25 410.518 1096.77 410.067 1096.44 408.464L1094.36 407.253C1088.11 403.523 1063.58 399.047 1053.6 394.637C1050.47 393.256 1047.79 391.404 1045.72 388.635C1039.35 380.103 1022.11 334.681 1017.32 322.636C1016.8 321.936 1016.47 320.934 1016.11 320.132C1013.72 315.202 1011.31 310.244 1008.43 305.578C1003.25 297.205 995.913 288.972 993.467 279.299C992.728 276.377 992.946 273.32 993.058 270.335C992.974 265.671 994.436 260.843 995.311 256.267L993.851 255.55Z"/>
	<path fill="#B6B4B5" transform="matrix(0.14652 0 0 0.146484 6.10352e-05 0)" d="M993.058 270.335C996.045 258.307 1001.45 246.138 1008.14 235.698L1008.42 236.603C1010.58 243.626 1009.89 252.307 1013.83 258.601C1016.6 263.013 1021.53 266.751 1023.75 271.331C1026.56 269.502 1028.98 267.945 1029.97 264.533C1030 264.458 1030.01 264.38 1030.02 264.303C1030.54 273.278 1025.19 280.222 1027.5 289.566C1028.65 294.183 1034.11 303.105 1034.38 304.913C1034.53 305.947 1034.06 306.663 1033.41 307.424C1031.92 309.186 1019.2 317.888 1016.11 320.132C1013.72 315.202 1011.31 310.244 1008.43 305.578C1003.25 297.205 995.913 288.972 993.467 279.299C992.728 276.377 992.946 273.32 993.058 270.335Z"/>
	<path fill="#FEFEFE" transform="matrix(0.14652 0 0 0.146484 6.10352e-05 0)" d="M1031.56 295.198C1035.45 292.607 1035.39 287.015 1038.77 284.651L1040.37 285.331C1043.81 287.169 1109.1 356.156 1109.8 357.993L1109.49 358.843C1105.41 359.833 1082.09 355.154 1075.72 354.468L1075.48 352.897C1067.63 342.584 1059.58 332.439 1051.8 322.075C1047.57 316.443 1036.17 298.484 1031.56 295.198Z"/>
	<path transform="matrix(0.14652 0 0 0.146484 6.10352e-05 0)" d="M993.851 255.55C999.22 251.34 1000.09 242.598 1003.8 236.89C1005.11 234.879 1006.49 233.084 1008.91 232.577L1010.26 233.475C1012.6 237.898 1012.88 244.702 1013.72 249.678C1015.91 249.128 1018.12 248.718 1020.32 248.287C1022.19 249.419 1023.35 249.536 1025.51 249.552C1029.97 248.439 1033.86 246.909 1038.1 249.399C1038.72 250.513 1039.14 250.932 1038.83 252.259C1038.32 254.399 1036.13 258.05 1034.43 259.471C1035.63 260.156 1037.3 260.868 1038.17 261.923C1039.88 262.727 1041.03 263.007 1041.67 264.987C1042.73 268.297 1041.33 273.294 1039.59 276.246C1039.2 276.921 1038.79 277.326 1038.23 277.864C1038.36 278.805 1038.49 279.742 1038.59 280.686C1038.74 282.123 1039.19 282.623 1039.81 283.847C1040 284.216 1040.23 284.912 1040.37 285.331L1038.77 284.651C1035.39 287.015 1035.45 292.607 1031.56 295.198C1036.17 298.484 1047.57 316.443 1051.8 322.075C1059.58 332.439 1067.63 342.584 1075.48 352.897L1075.72 354.468C1082.09 355.154 1105.41 359.833 1109.49 358.843L1109.8 357.993C1111.71 359.369 1112.64 361.118 1114.29 362.609C1109.83 362.384 1105.07 361.257 1100.61 360.59C1092.52 359.381 1084.56 358.45 1076.39 358.029C1075.67 359.767 1074.87 361.208 1073.61 362.618C1071.63 364.826 1066.46 369.639 1063.4 369.782C1063.16 367.183 1072.07 361.863 1073.01 358.102C1073.08 357.83 1073.12 357.552 1073.18 357.277C1073.22 356.553 1073.27 356.499 1073.07 355.679C1071.76 350.51 1041.08 311.675 1036.25 309.184C1035.06 312.016 1020.74 320.072 1017.32 322.636C1016.8 321.936 1016.47 320.934 1016.11 320.132C1019.2 317.888 1031.92 309.186 1033.41 307.424C1034.06 306.663 1034.53 305.947 1034.38 304.913C1034.11 303.105 1028.65 294.183 1027.5 289.566C1025.19 280.222 1030.54 273.278 1030.02 264.303C1030.01 264.38 1030 264.458 1029.97 264.533C1028.98 267.945 1026.56 269.502 1023.75 271.331C1021.53 266.751 1016.6 263.013 1013.83 258.601C1009.89 252.307 1010.58 243.626 1008.42 236.603L1008.14 235.698C1001.45 246.138 996.045 258.307 993.058 270.335C992.974 265.671 994.436 260.843 995.311 256.267L993.851 255.55Z"/>
	<path fill="#FEFEFE" transform="matrix(0.14652 0 0 0.146484 6.10352e-05 0)" d="M1025.51 249.552C1029.97 248.439 1033.86 246.909 1038.1 249.399C1038.72 250.513 1039.14 250.932 1038.83 252.259C1038.32 254.399 1036.13 258.05 1034.43 259.471C1034.33 259.712 1034.26 259.974 1034.11 260.195C1032.11 263.24 1027.07 265.046 1023.75 265.987C1020.03 262.061 1017.15 257.961 1014.54 253.229C1018.22 252.141 1022.04 251.191 1025.51 249.552Z"/>
	<path fill="#B6B4B5" transform="matrix(0.14652 0 0 0.146484 6.10352e-05 0)" d="M1038.17 261.923C1039.88 262.727 1041.03 263.007 1041.67 264.987C1042.73 268.297 1041.33 273.294 1039.59 276.246C1039.2 276.921 1038.79 277.326 1038.23 277.864C1038.22 278.059 1038.24 278.255 1038.21 278.448C1037.64 282.415 1033.16 288.956 1029.9 291.242C1030.79 288.651 1029.94 285.752 1029.99 283.042C1030.11 277.479 1032.11 271.453 1034.43 266.461C1035.41 264.354 1035.91 262.741 1038.17 261.923Z"/>
	<path transform="matrix(0.14652 0 0 0.146484 6.10352e-05 0)" d="M1094.36 407.253C1100.86 407.766 1131.9 416.213 1135.08 420.369C1135.23 420.561 1135.35 420.774 1135.48 420.977C1128.45 419.6 1099.65 410.58 1095.53 411.947C1096.25 410.518 1096.77 410.067 1096.44 408.464L1094.36 407.253Z"/>
	<path transform="matrix(0.14652 0 0 0.146484 6.10352e-05 0)" d="M57.8781 172.398C79.8738 161.119 102.985 151.924 125.355 141.403C157.244 126.404 189.138 109.944 221.856 96.8716C226.98 106.566 231.61 116.699 236.162 126.679L262.201 181.514C268.164 193.779 274.955 205.841 280.284 218.394C253.932 232.218 226.269 243.799 199.347 256.482C171.966 269.38 144.793 283.636 116.903 295.363C110.702 285.223 106.127 273.308 101.116 262.515C89.9099 238.378 78.5968 214.083 65.7573 190.769C63.9548 187.497 62.6413 183.796 60.762 180.651C59.6322 178.013 58.8206 175.117 57.8781 172.398ZM221.756 125.582L230.815 121.356C227.578 114.502 224.411 107.741 220.409 101.291C188.245 115.322 156.66 130.976 124.711 145.545L86.5739 162.989C79.6582 166.171 71.5693 169.22 65.2717 173.449L64.2899 173.057L64.9141 173.49C64.6243 173.387 64.2175 173.387 64.0691 173.118L62.7588 173.064C75.7143 167.381 88.4406 161.033 101.289 155.097Q135.734 139.42 170.016 123.391L201.279 108.75C206.826 106.157 212.915 103.798 218.099 100.578C215.972 100.442 213.619 101.564 211.682 102.375C199.71 107.389 188.01 113.303 176.256 118.825L121.624 144.284C101.435 153.706 80.2021 161.808 60.6911 172.509C59.4879 174.945 60.3191 176.71 61.1755 179.215L61.4021 179.866C65.3298 182.856 65.148 192.134 70.1721 193.936C71.4168 194.382 72.6622 193.826 73.8503 193.329C93.4291 185.146 112.641 175.032 131.927 166.094C161.715 152.289 191.879 139.213 221.756 125.582Z"/>
	<path fill="#FEFEFE" transform="matrix(0.14652 0 0 0.146484 6.10352e-05 0)" d="M221.661 128.425C224.479 127.021 227.376 125.147 230.58 125.085C233.189 126.264 233.851 127.565 235.073 130.153C238.648 138.912 243.179 147.397 247.308 155.92C257.138 176.214 267.351 196.425 275.921 217.295C256.66 227.302 236.551 235.677 216.894 244.861L118.498 291.571C112.08 279.529 106.54 266.934 100.665 254.617L73.1434 196.682C89.3743 188.861 105.943 181.775 122.316 174.26L221.661 128.425Z"/>
	<path transform="matrix(0.14652 0 0 0.146484 6.10352e-05 0)" d="M179.02 162.232C179.659 162.491 180.614 162.733 181.171 163.103C185.291 165.832 192.841 186.45 195.28 191.874Q196.256 191.414 197.237 190.964C199.797 189.792 203.146 187.851 206.008 188.921L205.747 189.981C203.229 192.225 199.931 193.231 196.837 194.445C199.711 200.543 206.952 211.18 206.055 218.035C202.924 216.569 195.908 199.425 194.078 195.498C186.996 197.954 180.303 201.361 173.554 204.599C178.455 213.834 183.255 222.612 185.3 232.987C178.421 225.136 174.979 215.133 171.08 205.607Q160.79 210.216 150.408 214.614C154.053 222.436 159.35 231.013 160.665 239.596L160.355 239.178L160.336 240.122C158.611 238.443 157.726 236.655 156.649 234.544Q152.23 225.086 147.504 215.777C140.881 219.143 134.413 222.601 127.227 224.636C132.64 218.71 139.366 216.332 146.606 213.378C141.844 204.029 137.025 194.954 134.079 184.83C140.921 192.264 144.899 203.064 149.204 212.13L169.694 203.252C165.221 193.854 160.596 184.549 157.311 174.654C165.091 181.354 168.414 192.814 172.195 202.119C179.108 199.187 185.851 195.862 192.618 192.612C187.505 182.867 182.114 172.818 179.02 162.232Z"/>
	<path fill="#19171A" transform="matrix(0.14652 0 0 0.146484 6.10352e-05 0)" d="M57.8781 172.398C79.8738 161.119 102.985 151.924 125.355 141.403C157.244 126.404 189.138 109.944 221.856 96.8716C226.98 106.566 231.61 116.699 236.162 126.679L235.073 130.153C233.851 127.565 233.189 126.264 230.58 125.085C227.376 125.147 224.479 127.021 221.661 128.425L221.756 125.582L230.815 121.356C227.578 114.502 224.411 107.741 220.409 101.291C188.245 115.322 156.66 130.976 124.711 145.545L86.5739 162.989C79.6582 166.171 71.5693 169.22 65.2717 173.449L64.2899 173.057L64.9141 173.49C64.6243 173.387 64.2175 173.387 64.0691 173.118L62.7588 173.064C75.7143 167.381 88.4406 161.033 101.289 155.097Q135.734 139.42 170.016 123.391L201.279 108.75C206.826 106.157 212.915 103.798 218.099 100.578C215.972 100.442 213.619 101.564 211.682 102.375C199.71 107.389 188.01 113.303 176.256 118.825L121.624 144.284C101.435 153.706 80.2021 161.808 60.6911 172.509C59.4879 174.945 60.3191 176.71 61.1755 179.215L61.4021 179.866L60.762 180.651C59.6322 178.013 58.8206 175.117 57.8781 172.398Z"/>
	<path fill="#0C445B" fill-opacity="0.69803923" transform="matrix(0.14652 0 0 0.146484 6.10352e-05 0)" d="M1160.15 531.544Q1168.19 531.196 1176.09 529.663C1179.68 529 1183.42 527.696 1187.05 527.721L1187.72 528.587C1193.12 535.568 1194.36 565.532 1193.22 574.608C1192.77 578.166 1192.18 581.366 1189.46 583.916C1190.33 586.207 1191.13 587.395 1190.13 589.904C1194.18 595.695 1201.65 666.544 1204.26 680.765Q1205.3 686.497 1206.84 692.116Q1208.37 697.735 1210.4 703.197C1215.82 718.081 1256.91 815.488 1255.34 822.181C1255.29 822.428 1255.2 822.668 1255.13 822.912C1252.39 825.85 1208.82 846.2 1203.31 847.668C1203.22 841.46 1189.16 821.347 1185.55 815.448C1168.41 787.383 1151.36 759.198 1139.52 728.393C1136.2 719.755 1126.47 682.425 1122.19 678.42C1122.03 678.27 1121.85 678.133 1121.69 677.989C1121.69 677.911 1121.72 677.832 1121.71 677.753C1121.61 676.604 1121.36 675.577 1121.55 674.411C1122.9 666.28 1125.71 658.013 1127.58 649.956L1136.58 610.847C1137.96 605.027 1138.97 598.069 1141.45 592.656C1143.51 588.162 1147.8 584.501 1150.5 580.312C1156.46 571.093 1160.69 555.707 1162.02 544.836C1162.54 540.592 1162.92 535.104 1160.15 531.544Z"/>
	<path transform="matrix(0.14652 0 0 0.146484 6.10352e-05 0)" d="M1190.13 589.904L1190 588.565C1184.06 590.633 1176.59 593.339 1170.53 590.629C1169.16 590.015 1167.86 589.564 1167.32 588.132C1171.99 586.884 1177.52 589.072 1182.47 588.265C1184.83 587.879 1187.73 586.82 1189.04 584.664C1189.19 584.42 1189.32 584.166 1189.46 583.916C1190.33 586.207 1191.13 587.395 1190.13 589.904Z"/>
	<path fill="#5F1582" transform="matrix(0.14652 0 0 0.146484 6.10352e-05 0)" d="M1197.51 152.095C1202.98 151.062 1208.29 149.823 1213.63 148.245C1218.32 146.859 1223.54 144.582 1228.39 144.18C1233.56 148.889 1241.59 179.721 1242.23 187.314C1242.32 188.381 1242.08 189.2 1241.74 190.195C1233.07 194.372 1222.21 196.004 1212.82 198.105C1210.69 199.401 1208.69 199.706 1206.23 199.95C1200.7 202.476 1193.85 203.782 1187.94 205.399Q1169.26 210.477 1150.53 215.355Q1085.56 232.369 1020.32 248.287C1018.12 248.718 1015.91 249.128 1013.72 249.678C1012.88 244.702 1012.6 237.898 1010.26 233.475L1008.91 232.577C1006.49 233.084 1005.11 234.879 1003.8 236.89C1000.09 242.598 999.22 251.34 993.851 255.55C990.039 256.581 978.924 260.505 975.505 259.258C974.036 259.203 973.582 259.665 972.334 260.396C965.678 261.483 929.536 252.175 921.284 249.127C933.987 237.88 946.679 226.718 959.984 216.179C960.744 215.46 961.958 214.874 962.852 214.3C987.761 207.06 1012.95 201.097 1038.04 194.591L1133.05 169.262C1152.82 163.97 1173.55 159.757 1192.9 153.201L1197.51 152.095Z"/>
	<path fill="#5F1582" transform="matrix(0.14652 0 0 0.146484 6.10352e-05 0)" d="M969.825 239.207Q1039.05 220.09 1108.63 202.279C1139.45 194.079 1170.4 184.73 1201.53 177.845C1204.89 181.105 1206.82 189.856 1207.43 194.398C1207.77 196.956 1207.76 197.924 1206.23 199.95C1200.7 202.476 1193.85 203.782 1187.94 205.399Q1169.26 210.477 1150.53 215.355Q1085.56 232.369 1020.32 248.287C1018.12 248.718 1015.91 249.128 1013.72 249.678C1012.88 244.702 1012.6 237.898 1010.26 233.475L1008.91 232.577C1006.49 233.084 1005.11 234.879 1003.8 236.89C1000.09 242.598 999.22 251.34 993.851 255.55C990.039 256.581 978.924 260.505 975.505 259.258C974.539 252.703 971.697 245.616 969.825 239.207Z"/>
	<path fill="#FEFEFE" transform="matrix(0.14652 0 0 0.146484 6.10352e-05 0)" d="M1197.51 152.095C1202.98 151.062 1208.29 149.823 1213.63 148.245C1218.32 146.859 1223.54 144.582 1228.39 144.18C1233.56 148.889 1241.59 179.721 1242.23 187.314C1242.32 188.381 1242.08 189.2 1241.74 190.195C1233.07 194.372 1222.21 196.004 1212.82 198.105L1211.64 197.943C1207.04 192.903 1202.84 161.907 1197.51 152.095Z"/>
	<path fill="#FEFEFE" transform="matrix(0.14652 0 0 0.146484 6.10352e-05 0)" d="M959.984 216.179C965.926 229.273 970.521 246.1 972.334 260.396C965.678 261.483 929.536 252.175 921.284 249.127C933.987 237.88 946.679 226.718 959.984 216.179Z"/>
	<path transform="matrix(0.14652 0 0 0.146484 6.10352e-05 0)" d="M1192.9 153.201L1197.51 152.095C1202.84 161.907 1207.04 192.903 1211.64 197.943L1212.82 198.105C1210.69 199.401 1208.69 199.706 1206.23 199.95C1207.76 197.924 1207.77 196.956 1207.43 194.398C1206.82 189.856 1204.89 181.105 1201.53 177.845C1170.4 184.73 1139.45 194.079 1108.63 202.279Q1039.05 220.09 969.825 239.207C971.697 245.616 974.539 252.703 975.505 259.258C974.036 259.203 973.582 259.665 972.334 260.396C970.521 246.1 965.926 229.273 959.984 216.179C960.744 215.46 961.958 214.874 962.852 214.3C963.756 221.462 966.894 229.131 969.146 235.977C988.085 231.523 1006.91 226.126 1025.73 221.189Q1076.44 208.09 1126.99 194.359Q1149.58 188.095 1172.28 182.239C1181.55 179.853 1191.24 177.891 1200.3 174.857C1200.37 174.676 1200.45 174.499 1200.5 174.313C1201.68 169.883 1198.34 158.688 1196.06 154.871C1195.17 153.374 1194.47 153.538 1192.9 153.201Z"/>
	<path fill="#BC2BFF" transform="matrix(0.14652 0 0 0.146484 6.10352e-05 0)" d="M1182.25 278.333Q1184.13 278.32 1186.01 278.341C1197.41 278.486 1208.04 281.604 1216.12 290.035C1224.19 298.463 1231.63 313.84 1231.14 325.72C1230.75 335.169 1225.73 344.774 1218.82 351.113C1213.3 356.181 1203.58 360.805 1195.96 360.517C1193.72 359.149 1193.64 357.952 1192.75 355.637C1192.97 355.043 1193.17 354.555 1193.17 353.907C1193.19 347.738 1190.01 340.348 1186.03 335.788Q1187.08 334.337 1188.04 332.829C1189.87 329.9 1191.36 325.979 1190.54 322.514C1187.49 317.75 1183.19 319.669 1179.13 317.243C1175.15 314.861 1175.97 306.976 1170.54 304.132C1163.98 300.695 1154.91 306.195 1148.74 302.609C1147.63 301.963 1146.77 300.933 1146.55 299.672C1146.08 297.056 1147.97 294.425 1149.53 292.478C1157.58 282.426 1169.99 279.638 1182.25 278.333Z"/>
	<path fill="#BC2BFF" transform="matrix(0.14652 0 0 0.146484 6.10352e-05 0)" d="M1061.64 917.315C1072.68 917.649 1083.74 917.449 1094.78 917.33C1096.68 918.967 1097.75 920.419 1097.89 922.997C1097.94 923.83 1097.9 924.548 1097.64 925.348C1101.02 929.165 1102.69 940.725 1102.36 945.684C1102.28 946.907 1101.97 948.17 1101.42 949.268L1102.24 952.029L1101.57 953.115C1091.8 954.499 1080.85 953.535 1070.94 953.533C1067.26 955.034 1006.86 954.113 997.154 953.956C997.405 951.513 997.475 947.433 999.066 945.546C1001.87 942.227 1010.29 939.827 1014.33 937.799C1021.96 933.966 1043.08 923.487 1048.73 918.61C1049.29 919.256 1049.79 919.736 1050.11 920.537C1053.94 919.411 1057.76 918.275 1061.64 917.315Z"/>
	<path fill="#FEFEFE" transform="matrix(0.14652 0 0 0.146484 6.10352e-05 0)" d="M997.154 953.956C997.405 951.513 997.475 947.433 999.066 945.546C1001.87 942.227 1010.29 939.827 1014.33 937.799C1021.96 933.966 1043.08 923.487 1048.73 918.61C1049.29 919.256 1049.79 919.736 1050.11 920.537C1048.17 925.156 1015.21 938.602 1008.61 943.547C1023.59 942.329 1038.07 942.028 1053.08 942.722Q1072.94 941.558 1092.82 942.125C1094.52 942.173 1097.8 942.679 1099.32 942.233C1099.73 942.11 1099.98 941.677 1100.32 941.399C1100.39 936.708 1099.12 929.804 1097.64 925.348C1101.02 929.165 1102.69 940.725 1102.36 945.684C1102.28 946.907 1101.97 948.17 1101.42 949.268L1102.24 952.029L1101.57 953.115C1091.8 954.499 1080.85 953.535 1070.94 953.533C1067.26 955.034 1006.86 954.113 997.154 953.956Z"/>
	<path transform="matrix(0.14652 0 0 0.146484 6.10352e-05 0)" d="M997.154 953.956C997.405 951.513 997.475 947.433 999.066 945.546C1001.87 942.227 1010.29 939.827 1014.33 937.799C1021.96 933.966 1043.08 923.487 1048.73 918.61C1049.29 919.256 1049.79 919.736 1050.11 920.537C1048.17 925.156 1015.21 938.602 1008.61 943.547C1023.59 942.329 1038.07 942.028 1053.08 942.722L1055.22 944.008C1049.61 947.092 1024.21 942.405 1015.36 945.211C1010.4 945.36 1004.65 944.981 1000.36 947.798C999.593 948.993 999.197 949.72 999.671 951.178C999.849 951.722 1000.01 951.933 1000.29 952.384C1010.18 955.973 1056.88 952.511 1070.94 953.533C1067.26 955.034 1006.86 954.113 997.154 953.956Z"/>
	<path fill="#19171A" transform="matrix(0.14652 0 0 0.146484 6.10352e-05 0)" d="M1097.64 925.348C1101.02 929.165 1102.69 940.725 1102.36 945.684C1102.28 946.907 1101.97 948.17 1101.42 949.268C1101.62 948.165 1101.48 947.665 1101.23 946.595C1100.73 946.253 1100.29 945.816 1099.74 945.57C1097.26 944.46 1026.09 945.299 1015.36 945.211C1024.21 942.405 1049.61 947.092 1055.22 944.008L1053.08 942.722Q1072.94 941.558 1092.82 942.125C1094.52 942.173 1097.8 942.679 1099.32 942.233C1099.73 942.11 1099.98 941.677 1100.32 941.399C1100.39 936.708 1099.12 929.804 1097.64 925.348Z"/>
	<path fill="#0C445B" fill-opacity="0.69803923" transform="matrix(0.14652 0 0 0.146484 6.10352e-05 0)" d="M1043.7 866.789C1047.87 867.99 1094.91 868.203 1099.61 867.045L1100.2 865.957C1100.51 868.144 1100.83 868.369 1102.21 869.979C1103.59 870.626 1104.26 870.632 1104.8 872.201C1106.34 876.677 1106.76 883.164 1104.61 887.523C1103.84 889.076 1102.78 890.044 1101.09 890.454C1099.8 890.765 1098.22 890.714 1096.9 890.771C1095.78 891.146 1094.7 891.537 1093.62 891.993L1092.99 893.277C1093.06 893.464 1093.14 893.65 1093.21 893.838C1094.11 896.153 1094.36 897.79 1093.38 900.123C1095.24 903.191 1095.71 905.89 1094.9 909.391C1095.83 910.695 1096.57 911.571 1096.29 913.323C1096.08 914.625 1095.37 916.142 1094.78 917.33C1083.74 917.449 1072.68 917.649 1061.64 917.315C1057.76 918.275 1053.94 919.411 1050.11 920.537C1049.79 919.736 1049.29 919.256 1048.73 918.61C1050.74 917.527 1052.82 916.672 1054.15 914.751C1055.46 912.092 1055.13 908.792 1055.18 905.877L1055.24 904.696C1055.62 900.658 1055.29 894.981 1053.14 891.466L1042.61 890.989C1044.13 887.656 1043.8 884.793 1042.96 881.316C1043.19 880.702 1043.2 880.738 1043.36 879.99C1043.93 877.26 1043.03 874.142 1041.45 871.921C1041.6 870.853 1041.81 870.186 1042.38 869.29C1042.91 868.468 1043.32 867.693 1043.7 866.789Z"/>
	<path fill="#B6B4B5" transform="matrix(0.14652 0 0 0.146484 6.10352e-05 0)" d="M1053.98 893.336L1090.93 893.389C1092.72 895.616 1093.63 897.209 1093.38 900.123C1095.24 903.191 1095.71 905.89 1094.9 909.391C1095.83 910.695 1096.57 911.571 1096.29 913.323C1096.08 914.625 1095.37 916.142 1094.78 917.33C1083.74 917.449 1072.68 917.649 1061.64 917.315C1057.76 918.275 1053.94 919.411 1050.11 920.537C1049.79 919.736 1049.29 919.256 1048.73 918.61C1050.74 917.527 1052.82 916.672 1054.15 914.751C1055.46 912.092 1055.13 908.792 1055.18 905.877L1055.24 904.696C1055.82 903.762 1056.26 903.025 1056.38 901.909Q1056.44 901.342 1056.45 900.771Q1056.46 900.2 1056.41 899.631Q1056.37 899.063 1056.27 898.501Q1056.17 897.939 1056.01 897.389Q1055.86 896.84 1055.65 896.307Q1055.45 895.775 1055.19 895.265Q1054.94 894.755 1054.63 894.271Q1054.33 893.788 1053.98 893.336Z"/>
	<path transform="matrix(0.14652 0 0 0.146484 6.10352e-05 0)" d="M1094.9 909.391C1095.83 910.695 1096.57 911.571 1096.29 913.323C1096.08 914.625 1095.37 916.142 1094.78 917.33C1083.74 917.449 1072.68 917.649 1061.64 917.315C1064.08 913.998 1069.18 915.673 1072.93 914.746C1078.87 914.413 1090.18 916.666 1095.07 913.565C1095.68 911.783 1095.34 911.185 1094.9 909.391Z"/>
	<path fill="#19171A" transform="matrix(0.14652 0 0 0.146484 6.10352e-05 0)" d="M1054.15 914.751C1055.46 912.092 1055.13 908.792 1055.18 905.877C1055.29 905.99 1055.39 906.1 1055.5 906.216C1056.84 907.741 1056.95 908.762 1057.13 910.721C1057.23 911.81 1057.34 912.897 1057.43 913.988C1060.38 915.62 1069.23 914.712 1072.93 914.746C1069.18 915.673 1064.08 913.998 1061.64 917.315C1057.76 918.275 1053.94 919.411 1050.11 920.537C1049.79 919.736 1049.29 919.256 1048.73 918.61C1050.74 917.527 1052.82 916.672 1054.15 914.751Z"/>
	<path transform="matrix(0.14652 0 0 0.146484 6.10352e-05 0)" d="M1043.7 866.789C1047.87 867.99 1094.91 868.203 1099.61 867.045L1100.2 865.957C1100.51 868.144 1100.83 868.369 1102.21 869.979C1088.05 871.424 1072.76 870.51 1058.48 870.5C1053.93 870.497 1048.85 870.053 1044.34 870.622C1043.06 870.783 1042.44 871.137 1041.45 871.921C1041.6 870.853 1041.81 870.186 1042.38 869.29C1042.91 868.468 1043.32 867.693 1043.7 866.789Z"/>
	<path transform="matrix(0.14652 0 0 0.146484 6.10352e-05 0)" d="M1042.96 881.316C1044.16 882.812 1044.56 884.048 1044.44 886C1044.34 887.472 1043.96 889.021 1043.2 890.289C1061.04 890.833 1079.12 889.753 1096.9 890.771C1095.78 891.146 1094.7 891.537 1093.62 891.993L1092.99 893.277C1093.06 893.464 1093.14 893.65 1093.21 893.838C1094.11 896.153 1094.36 897.79 1093.38 900.123C1093.63 897.209 1092.72 895.616 1090.93 893.389L1053.98 893.336Q1054.33 893.788 1054.63 894.271Q1054.94 894.755 1055.19 895.265Q1055.45 895.775 1055.65 896.308Q1055.86 896.84 1056.01 897.389Q1056.17 897.939 1056.27 898.501Q1056.37 899.063 1056.41 899.631Q1056.46 900.2 1056.45 900.771Q1056.44 901.342 1056.38 901.909C1056.26 903.025 1055.82 903.762 1055.24 904.696C1055.62 900.658 1055.29 894.981 1053.14 891.466L1042.61 890.989C1044.13 887.656 1043.8 884.793 1042.96 881.316Z"/>
	<path fill="#BC2BFF" transform="matrix(0.14652 0 0 0.146484 6.10352e-05 0)" d="M1277.04 130.332C1278.53 129.969 1279.33 129.743 1280.81 130.394C1284.62 137.365 1294.95 170.038 1293.02 176.91C1287.34 181.19 1255.75 187.478 1247.14 189.001C1247.02 189.011 1246.89 189.053 1246.77 189.031C1242.24 188.226 1236.74 149.387 1231.09 142.891C1240.3 140.93 1269.74 134.091 1277.04 130.332Z"/>
	<path fill="#BC2BFF" transform="matrix(0.14652 0 0 0.146484 6.10352e-05 0)" d="M1235.07 293.666C1239.72 293.117 1244.47 292.873 1249.12 293.676C1257.22 295.076 1264.53 299.386 1269.24 306.19C1279.79 321.412 1272.79 335.886 1270.13 351.95C1269.02 358.685 1268.95 370.147 1273.2 375.876C1277.46 381.624 1283.34 383.019 1290.05 384.087L1290.69 384.998C1285.63 387.724 1279.02 387.945 1273.45 387.123C1253.71 384.211 1242.9 370.051 1243.43 350.347C1243.67 341.171 1246.02 332.301 1245.49 323.032C1244.85 311.889 1241.72 302.601 1235.07 293.666Z"/>
	<path fill="#B6B4B5" transform="matrix(0.14652 0 0 0.146484 6.10352e-05 0)" d="M1156.78 306.332C1159.96 305.926 1163.19 305.515 1166.35 306.327C1169.39 307.109 1172.02 308.875 1173.5 311.694C1176.37 317.154 1174.59 323.851 1173.04 329.422C1175.39 331.927 1176.01 336.377 1179.2 338.282C1180.85 339.269 1182.42 338.832 1184.16 338.331C1184.33 338.28 1184.51 338.22 1184.68 338.165C1189.17 343.085 1190.7 352.215 1191.45 358.58C1192 363.327 1192.77 370.43 1189.63 374.427C1185.11 371.2 1175.12 371.003 1169.56 369.612C1167.82 366.186 1168.99 360.97 1166.96 356.534L1166.62 355.807C1166.84 355.72 1167.06 355.641 1167.28 355.546C1170.81 353.996 1173.51 349.896 1174.76 346.45L1174.44 345.758C1171.62 348.793 1168.68 352.27 1165.42 354.795C1161.81 357.583 1155.91 360.208 1151.28 359.491C1136.69 357.226 1140.65 335.375 1134.98 328.474C1134.78 328.237 1134.57 328.018 1134.36 327.791C1143.79 322.528 1147.81 312.123 1156.78 306.332Z"/>
	<path fill="#BC2BFF" transform="matrix(0.14652 0 0 0.146484 6.10352e-05 0)" d="M1268 869.665C1270.16 869.567 1271.21 869.615 1272.95 871.047C1276.7 874.134 1284.17 882.47 1284.68 887.319C1282.77 891.652 1225.35 929.715 1217.04 932.999C1214.1 937.276 1209.05 939.124 1204.4 940.839C1205 940.351 1205.57 939.854 1206.15 939.354C1212.2 934.177 1227.04 909.803 1231.95 901.975C1234.54 897.845 1238.83 891.678 1237.66 886.579C1243.61 883.726 1263.68 873.402 1268 869.665Z"/>
	<path fill="#0C445B" fill-opacity="0.69803923" transform="matrix(0.14652 0 0 0.146484 6.10352e-05 0)" d="M658.18 898.958Q658.852 898.781 659.534 898.648Q660.216 898.516 660.905 898.428Q661.594 898.341 662.288 898.3Q662.982 898.259 663.676 898.263Q664.371 898.268 665.064 898.318Q665.757 898.369 666.445 898.465Q667.133 898.561 667.814 898.703Q668.494 898.844 669.163 899.031Q669.833 899.217 670.488 899.447Q671.144 899.677 671.783 899.95Q672.422 900.223 673.041 900.537Q673.661 900.852 674.258 901.207Q674.856 901.562 675.428 901.955Q676.001 902.349 676.546 902.779Q677.092 903.21 677.607 903.676Q678.123 904.141 678.607 904.64Q679.091 905.139 679.541 905.668Q679.99 906.198 680.404 906.756Q680.818 907.315 681.194 907.899Q681.57 908.483 681.906 909.091Q682.243 909.699 682.539 910.328Q682.834 910.957 683.088 911.604Q683.341 912.251 683.551 912.914Q683.761 913.576 683.927 914.251Q684.093 914.926 684.214 915.61Q684.335 916.295 684.41 916.986Q684.486 917.676 684.515 918.371Q684.545 919.065 684.528 919.76Q684.512 920.455 684.45 921.147Q684.387 921.839 684.279 922.525Q684.172 923.212 684.019 923.89Q683.866 924.568 683.668 925.234Q683.471 925.9 683.229 926.552Q682.988 927.204 682.705 927.838Q682.421 928.473 682.096 929.087Q681.771 929.701 681.406 930.293Q681.041 930.884 680.638 931.45Q680.235 932.016 679.795 932.554Q679.356 933.092 678.881 933.6Q678.407 934.108 677.9 934.584Q677.393 935.059 676.856 935.5Q676.319 935.941 675.754 936.345Q675.189 936.749 674.598 937.115Q674.008 937.482 673.394 937.808Q672.781 938.134 672.147 938.419Q671.513 938.704 670.862 938.946Q670.211 939.189 669.545 939.388Q668.879 939.587 668.202 939.741Q667.705 939.854 667.203 939.943Q666.701 940.032 666.195 940.097Q665.689 940.161 665.181 940.201Q664.673 940.241 664.163 940.257Q663.653 940.272 663.144 940.262Q662.634 940.253 662.125 940.219Q661.616 940.184 661.11 940.125Q660.604 940.066 660.101 939.983Q659.598 939.899 659.099 939.792Q658.601 939.684 658.108 939.552Q657.616 939.42 657.13 939.265Q656.645 939.109 656.167 938.93Q655.69 938.751 655.222 938.549Q654.754 938.347 654.296 938.123Q653.838 937.898 653.391 937.652Q652.945 937.405 652.511 937.138Q652.077 936.87 651.657 936.581Q651.236 936.293 650.831 935.984Q650.425 935.675 650.034 935.347Q649.644 935.019 649.27 934.673Q648.896 934.326 648.539 933.962Q648.182 933.598 647.843 933.217Q647.504 932.836 647.185 932.438Q646.865 932.041 646.565 931.629Q646.264 931.217 645.985 930.79Q645.705 930.364 645.446 929.925Q645.187 929.485 644.95 929.034Q644.713 928.582 644.498 928.12Q644.283 927.657 644.09 927.185Q643.898 926.713 643.729 926.232Q643.56 925.751 643.414 925.262Q643.269 924.773 643.147 924.278Q643.025 923.783 642.928 923.282Q642.83 922.782 642.757 922.277Q642.684 921.772 642.636 921.265Q642.587 920.757 642.563 920.247Q642.539 919.738 642.54 919.228Q642.541 918.718 642.567 918.209Q642.592 917.699 642.643 917.192Q642.693 916.684 642.768 916.18Q642.843 915.675 642.942 915.175Q643.042 914.675 643.165 914.18Q643.288 913.685 643.436 913.197Q643.583 912.709 643.754 912.228Q643.925 911.748 644.119 911.276Q644.313 910.804 644.529 910.343Q644.746 909.881 644.985 909.43Q645.223 908.98 645.484 908.541Q645.744 908.103 646.025 907.677Q646.307 907.252 646.608 906.841Q646.91 906.43 647.231 906.034Q647.552 905.638 647.893 905.258Q648.233 904.878 648.591 904.515Q648.949 904.151 649.324 903.806Q649.699 903.461 650.091 903.134Q650.483 902.808 650.89 902.5Q651.297 902.193 651.718 901.906Q652.139 901.619 652.574 901.353Q653.009 901.087 653.456 900.842Q653.904 900.597 654.362 900.374Q654.821 900.151 655.29 899.951Q655.759 899.751 656.237 899.573Q656.715 899.396 657.201 899.242Q657.687 899.088 658.18 898.958Z"/>
	<path fill="#0C445B" fill-opacity="0.69803923" transform="matrix(0.14652 0 0 0.146484 6.10352e-05 0)" d="M1256.41 825.665L1258.3 825.541C1259.5 825.918 1260.08 826.372 1260.89 827.359C1263.57 830.631 1266.22 836.867 1265.75 841.102C1265.43 841.995 1264.92 842.403 1264.19 842.986C1257.19 848.618 1219.55 868.547 1212.44 867.669C1212.41 867.431 1212.4 867.189 1212.35 866.954C1211.29 862.099 1205.54 854.683 1201.46 851.935C1210.69 849.081 1247.9 831.081 1256.41 825.665Z"/>
	<path fill="#FEFEFE" transform="matrix(0.14652 0 0 0.146484 6.10352e-05 0)" d="M1285.11 890.999C1285.88 890.956 1286.67 890.89 1287.38 891.258C1288.53 891.855 1290.36 893.734 1290.82 894.958C1291.04 895.563 1291.1 896.04 1290.77 896.615C1288.57 900.356 1212.04 951.03 1206.48 952.078C1204.89 949.953 1202.58 948.122 1200.3 946.807C1209.59 943.599 1276.51 898.773 1285.11 890.999Z"/>
	<path fill="#B6B4B5" transform="matrix(0.14652 0 0 0.146484 6.10352e-05 0)" d="M1256.88 850.331L1259.34 849.885C1260.61 850.371 1261.19 850.86 1262 851.983C1264.52 855.483 1267.12 862.035 1266.46 866.352C1266.24 866.944 1266.23 867.073 1265.76 867.631C1262.27 871.769 1239.1 883.48 1233.97 883.851C1233.97 883.439 1233.99 883.254 1233.88 882.81C1232.48 877.121 1228.32 870.563 1223.63 867.083C1231.28 864.74 1251.73 855.91 1256.88 850.331Z"/>
	<path fill="#2E2E47" transform="matrix(0.14652 0 0 0.146484 6.10352e-05 0)" d="M1223.58 293.666C1225.18 293.424 1226.93 293.078 1228.55 293.163C1230.75 293.278 1232.41 294.545 1233.88 296.08C1238.23 300.634 1241.57 308.248 1241.1 314.612C1240.92 316.911 1240.01 317.674 1238.34 319.001C1238.27 319.179 1238.23 319.378 1238.11 319.534C1237.33 320.593 1236.91 320.54 1235.73 320.525C1233.21 318.084 1224.09 297.507 1223.58 293.666Z"/>
	<path fill="#B6B4B5" transform="matrix(0.14652 0 0 0.146484 6.10352e-05 0)" d="M1178.1 320.996C1179.37 320.732 1180.8 320.365 1182.1 320.527C1183.99 320.762 1185.87 322.016 1186.85 323.628Q1187.01 323.895 1187.14 324.178Q1187.27 324.46 1187.38 324.755Q1187.48 325.05 1187.55 325.354Q1187.62 325.658 1187.66 325.967Q1187.69 326.277 1187.7 326.589Q1187.7 326.9 1187.68 327.211Q1187.65 327.522 1187.59 327.828Q1187.53 328.134 1187.44 328.432C1186.69 330.927 1184.8 332.366 1182.56 333.468L1181.36 334.614C1179.77 334.76 1178.62 334.882 1177.35 333.715C1173.32 330.029 1178.81 325.541 1178.1 320.996Z"/>
	<path fill="#FEFEFE" transform="matrix(0.14652 0 0 0.146484 6.10352e-05 0)" d="M989.342 259.052C990.965 259.343 991.513 259.168 992.576 260.484C992.736 263.157 991.033 265.533 989.806 267.829C988.207 266.197 986.555 264.313 986.169 262.014C986.913 259.957 987.463 260.037 989.342 259.052Z"/>
</svg>
