<?xml version="1.0" encoding="utf-8" ?>
<svg xmlns="http://www.w3.org/2000/svg" xmlns:xlink="http://www.w3.org/1999/xlink" width="200" height="150">
	<path fill="#010000" transform="scale(0.146484 0.146484)" d="M389.877 748.643C351.847 748.408 313.816 748.44 275.787 748.737C262.535 748.761 235.562 750.297 223.542 747.717C218.085 741.992 218.971 729.057 219.151 721.704C219.382 712.252 220.68 702.998 221.178 693.584C221.799 681.873 221.503 669.746 223.086 658.132C224.346 648.893 227.577 640.003 228.79 630.69C229.731 623.466 229.831 616.177 230.648 608.946L234.304 574.031C234.925 568.563 236.045 563.141 236.545 557.661C237.463 547.612 235.968 537.365 236.88 527.297L241.36 480.628C241.976 474.573 243.528 468.353 243.672 462.295C243.77 458.163 242.534 454.056 242.561 449.913C242.609 442.547 244.104 435.131 244.434 427.753C244.821 419.115 244.079 410.316 244.685 401.716C244.979 397.55 247.109 393.627 247.431 389.47C247.85 384.045 246.61 378.368 247.507 372.993C248.694 365.876 252.05 359.292 252.526 351.99C253.379 338.932 250.156 325.763 251.388 312.966C251.95 307.13 254.084 301.387 255.672 295.755C258.041 287.353 260.471 277.728 261.114 269.043C261.891 258.533 262.18 247.975 263.127 237.478C263.856 229.389 265.455 221.207 265.673 213.094C265.879 205.473 262.829 197.875 263.454 190.342C263.835 185.751 264.747 180.591 267.542 176.798C268.091 176.049 268.715 175.357 269.403 174.733C273.17 171.333 278.938 170.583 283.828 170.983C290.93 171.564 297.872 173.588 305.014 174.153C312.176 174.72 319.26 173.846 326.336 174.253C333.087 174.642 339.725 176.718 346.468 177.382C355.513 178.273 364.663 177.891 373.697 178.931C384.275 180.149 394.703 182.708 405.294 183.804C412.351 184.534 419.493 184.027 426.555 184.7C432.274 185.246 438.146 186.633 443.883 186.64C449.443 186.648 455.042 185.684 460.61 185.49C470.617 185.141 480.738 185.442 490.751 185.516C516.383 185.705 542.264 187.239 567.874 186.489C573.953 186.311 580.008 185.717 586.093 185.587C590.726 185.489 595.459 185.889 600.072 185.449C605.33 184.947 610.495 183.286 615.709 182.437C622.294 181.365 629.666 181.505 636.364 181.276C660.327 180.455 684.407 180.779 708.395 180.086C721.724 179.701 734.978 178.064 748.335 177.967C758.058 177.896 767.761 179.057 777.465 178.981C784.468 178.926 791.474 178.079 798.473 177.789C810.748 177.281 823.236 177.237 835.532 176.952C844.532 176.744 853.501 177.793 862.492 177.808C876.124 177.831 889.761 177.033 903.403 177.085C918.851 177.143 934.27 179.144 949.71 179.198L1024.06 179.287C1036.48 179.333 1070.49 175.595 1080.05 182.375C1081.82 184.896 1081.81 187.502 1081.32 190.476C1080.49 195.472 1078.31 200.328 1077.65 205.332C1076.72 212.456 1078.39 219.97 1077.63 227.167C1077.21 231.15 1074.91 234.748 1074.59 238.737C1073.93 247.12 1074.29 255.713 1073.93 264.132C1072.47 298.595 1072.14 333.115 1071.29 367.599C1071 379.263 1069.18 390.408 1068.13 401.972C1067.14 412.895 1067.14 424.001 1066.57 434.964C1066.22 441.691 1065.22 448.409 1065.01 455.128C1064.38 475.263 1066.18 495.592 1065.98 515.769C1065.89 525.265 1063.54 534.563 1063.28 544.05C1062.99 555.03 1063.66 566.025 1063.51 577C1063.4 585.121 1062.5 593.191 1062.51 601.334C1062.51 613.165 1063.17 625.213 1062.43 637.018C1062.1 642.274 1060.34 647.247 1059.93 652.456C1058.58 669.908 1059.45 688.081 1059.22 705.64C1059.12 712.685 1059.46 720.068 1058.3 727.022C1057.15 733.947 1051.47 744.797 1045.63 748.711C1045.08 749.078 1044.92 749.139 1044.28 749.473C1032.98 750.908 1021.15 749.65 1009.74 749.856C985.536 750.293 961.362 751.022 937.174 752.058C935.981 764.403 934.857 776.989 934.515 789.392C934.087 804.927 934.578 820.467 934.297 835.998C933.842 861.152 932.342 886.281 932.455 911.452C946.85 920.642 962.391 927.325 975.716 938.396C980.668 942.51 985.233 948.548 989.099 953.713C996.148 963.134 1031.13 1014.1 1033.48 1022.12C1033.68 1022.83 1033.61 1023.28 1033.52 1024L1003.38 1024L844.441 1024L803.145 1024C803.227 1004.73 802.429 984.554 804.054 965.377C805.894 943.664 818.424 929.248 834.167 915.839C836.046 903.11 835.159 889.613 836.062 876.739C836.621 868.765 838.108 860.883 838.659 852.916C839.59 839.465 839.154 825.831 839.682 812.341C839.986 804.583 840.996 796.887 841.381 789.139C842.092 774.839 842.077 760.295 841.785 745.978C818.345 745.961 794.873 746.533 771.435 745.91C755.589 745.489 739.786 743.872 723.946 743.397C711.146 743.013 698.123 743.671 685.308 743.986C648.979 744.877 612.405 747.059 576.153 749.71C563.3 750.65 550.469 752.674 537.599 753.313C525.052 753.936 490.922 750.984 481.543 756.901C478.328 767.14 479.278 778.876 478.446 789.534L473.019 859.321C472.222 870.137 470.395 880.713 470.416 891.61C477.151 901.651 487.793 908.351 494.042 919.042C502.797 934.02 503.535 1007.19 498.958 1024L474.033 1024L420.676 1024L290.725 1024L266.757 1024C271.689 1015.41 277.485 1006.07 281.036 996.847C283.722 989.869 284.947 982.137 288.001 975.36C290.597 969.599 295.066 964.909 297.991 959.34C305.536 944.975 309.225 933.179 319.354 919.602C323.727 913.741 329.407 909.036 333.928 903.328C341.717 893.493 347.844 882.536 360.781 879.024C366.515 877.468 377.048 876.468 380.315 870.906C382.217 867.67 383.101 863.51 384.091 859.912C391.099 834.465 389.885 807.654 389.974 781.478C390.011 770.54 390.558 759.567 389.877 748.643Z"/>
	<path fill="#FAB29A" transform="scale(0.146484 0.146484)" d="M290.725 1024C294.352 1016.13 296.655 1007.52 300.085 999.521C303.667 991.17 307.027 982.253 311.22 974.225C314.027 968.851 317.626 963.915 320.434 958.542C331.492 937.387 336.204 927.847 351.981 909.064C357.243 902.8 367.632 890.337 376.406 890.075C377.784 890.038 379.115 890.58 380.077 891.568C383.723 895.317 382.752 903.784 382.5 908.469C382.42 908.596 382.343 908.726 382.261 908.852C382.124 909.062 381.978 909.266 381.843 909.477C378.323 914.988 371.567 917.99 368.753 923.908C367.706 926.11 367.797 928.859 368.756 931.082C369.472 932.741 370.666 934.191 372.419 934.796C378.331 936.835 393.465 926.116 398.823 923.47C413.834 916.055 428.564 913.029 445.264 912.454C450.98 912.257 456.839 912.059 462.312 913.998C468.834 916.31 473.21 921.109 476.046 927.305C477.37 930.199 478.766 934.476 477.588 937.569C474.666 939.828 470.522 940.428 467.064 941.682C458.154 944.913 450.516 948.435 440.891 949.48C434.797 950.141 427.771 949.524 421.894 950.871C419.735 951.366 417.382 953.161 416.278 955.062C415.268 956.802 415.049 959.168 415.623 961.089C416.315 963.405 418.699 965.272 420.815 966.222C436.753 973.382 464.565 961.594 479.848 955.443L480.847 955.997C485.322 963.077 482.624 980.371 481.648 988.673C472.047 990.165 466.785 996.679 458.154 999.692C447.564 1003.39 427.235 1001.68 419.618 1009.35C418.424 1010.56 417.782 1012.08 417.945 1013.76C418.208 1016.5 419.965 1018.28 421.993 1019.91L424.259 1022.01L425.158 1021.18L425.596 1021.58L424.724 1021.22C423.114 1021.61 422.002 1021.9 421.033 1023.38C420.903 1023.58 420.795 1023.79 420.676 1024L290.725 1024Z"/>
	<path fill="#E7A89A" transform="scale(0.146484 0.146484)" d="M330.038 985.639C330.45 985.838 330.619 985.888 330.987 986.24C332.676 987.852 333.593 991.852 333.758 994.107L333.03 994.12C331.875 992.921 330.566 991.896 329.406 990.706C328.225 989.495 327.931 989.051 327.927 987.362L330.038 985.639Z"/>
	<path fill="#E7A89A" transform="scale(0.146484 0.146484)" d="M328.712 976.176C329.979 975.367 331.663 975.744 332.465 977.016C333.266 978.288 332.88 979.97 331.603 980.764C330.337 981.552 328.673 981.169 327.878 979.908C327.083 978.646 327.456 976.979 328.712 976.176Z"/>
	<path fill="#FAB29A" transform="scale(0.146484 0.146484)" d="M861.863 1005.07C869.585 1003.03 884.773 1001.48 889.122 994.478C890.293 992.594 891.261 989.899 890.671 987.671C890.343 986.43 889.438 985.449 888.332 984.834C880.5 980.482 869.493 985.392 861.194 985.277C853.686 985.172 832.993 979.76 830.197 971.775C829.324 969.283 829.48 966.041 830.733 963.702C832.727 959.981 836.93 957.94 840.857 956.914C850.029 954.519 860.092 955.592 869.47 955.301C875.706 955.108 881.911 954.275 888.151 954.082C902.037 953.65 917.144 955.889 925.471 941.768C927.999 937.482 928.84 933.107 929.111 928.207C936.842 936.243 947.172 939.093 955.6 946.045C974.018 961.237 994.328 1001.53 1003.38 1024L844.441 1024L843.877 1023.22C840.155 1018.09 827.423 1010.53 828.018 1003.94C828.13 1002.7 828.599 1001.84 829.593 1001.09C832.965 998.545 840.423 999.989 844.285 1000.73C850.138 1001.85 856.254 1003.05 861.863 1005.07Z"/>
	<path fill="#E7A89A" transform="scale(0.146484 0.146484)" d="M421.993 1019.91C435.614 1021.21 447.217 1022.01 460.241 1017.09C465.355 1015.15 470.645 1012.67 475.917 1011.32C477.437 1014.82 475.25 1020.5 474.033 1024L420.676 1024C420.795 1023.79 420.903 1023.58 421.033 1023.38C422.002 1021.9 423.114 1021.61 424.724 1021.22L425.596 1021.58L425.158 1021.18L424.259 1022.01L421.993 1019.91Z"/>
	<path fill="#C7A199" transform="scale(0.146484 0.146484)" d="M319.081 203.445C334.93 202.717 350.252 208.222 365.867 210.081C380.318 211.802 394.904 208.936 409.225 210.288C423.798 211.664 438.92 213.986 453.323 216.593C460.692 217.927 468.279 220.152 475.702 220.89C484.119 221.727 491.969 218.182 500.324 218.433C511.441 218.767 522.481 221.077 533.634 221.369C542.152 221.591 550.658 220.419 559.175 220.411C569.58 220.401 579.896 222.143 590.297 222.402C600.932 222.667 611.611 221.515 622.222 221.962C632.771 222.406 642.927 225 653.356 226.326C658.953 227.037 664.569 226.213 670.171 226.656C687.974 228.065 705.545 231.222 723.511 230.525C734.507 230.098 745.454 225.582 755.71 221.946C748.524 222.263 741.336 222.528 734.146 222.741C728.327 222.901 701.605 222.058 698.442 219.068C702.299 217.126 725.112 219.558 732.168 218.926C747.388 217.562 762.139 217.785 777.339 217.412C784.762 217.229 792.184 216.109 799.609 216.156C808.148 216.209 816.676 217.455 825.222 217.173C835.6 216.832 845.57 212.935 856.066 212.816L955.593 210.775C970.787 210.377 986.533 211.864 1001.56 209.12C1001.96 217.436 1000.54 225.445 1000.58 233.676C1000.6 238.742 1001.59 243.903 1002.07 248.95C1002.63 255.018 1002.61 261.239 1002.46 267.33C1002.28 274.371 1001.04 281.332 1000.68 288.356C1000.29 295.996 1000.65 303.673 1000.06 311.305C999.532 318.11 998.428 324.955 998.257 331.775C998.018 341.329 1000.5 350.872 1000.64 360.421C1000.75 367.91 998.482 375.411 998.74 382.835C998.913 387.799 1000.82 392.526 1000.85 397.566C1000.89 406.209 997.493 414.501 997.662 423.258C997.843 432.61 1000.37 441.765 1000.22 451.138C1000.06 460.703 996.603 467.924 996.303 476.377C996.077 482.731 998.293 489.105 998.468 495.492C998.729 504.987 996.595 514.109 996.41 523.503C996.264 530.941 997.877 538.377 997.73 545.842C997.494 557.853 994.007 569.62 993.217 581.658C992.606 590.965 993.287 600.483 993.306 609.824C993.33 622.053 992.839 634.273 992.864 646.5C993.357 660.789 992.228 674.794 991.409 689.04C990.979 696.51 990.132 703.712 990.818 711.198C977.319 715.966 970.07 711.621 957.081 712.003C945.491 712.344 933.547 712.831 921.992 713.836C911.651 714.736 901.133 716.235 890.735 716.019C880.451 715.804 870.101 714.43 859.828 713.756C853.822 713.362 847.795 713.695 841.802 713.175C836.272 712.696 830.782 711.633 825.234 711.377C812.548 710.791 799.843 712.061 787.129 711.228C775.95 710.495 765.25 707.356 753.937 707.203C742.096 707.043 730.675 709.067 718.929 709.382C701.173 709.858 683.332 708.704 665.589 709.372C659.393 709.605 653.394 711.43 647.186 711.515C637.348 711.65 627.44 710.136 617.593 709.84L540.353 707.989C530.248 707.663 520.185 709.541 510.029 709.233C502.48 709.004 495.231 706.436 487.65 706.258C470.387 705.854 452.748 705.376 435.506 706.086C429.833 706.319 424.315 708.15 418.675 708.187C408.51 708.255 398.051 706.782 387.866 706.341C378.225 705.923 368.559 706.261 358.922 705.779C342.22 704.944 325.486 702.931 308.859 701.162C305.887 675.437 309.049 649.502 309.33 623.707C309.581 600.636 307.247 577.771 307.343 554.701C307.396 541.632 309.753 528.567 309.886 515.435C309.924 511.642 307.851 508.237 307.87 504.358C307.899 498.334 310.819 492.519 311.117 486.464C311.466 479.336 309.234 472.222 309.398 465.064C309.629 455.002 312.45 444.738 313.248 434.645C313.994 425.205 312.582 415.465 312.232 405.993C312.509 405.349 312.643 405.069 313.228 404.639C314.631 403.606 314.281 386.655 314.424 383.937C314.742 377.925 315.974 371.502 315.332 365.541C314.654 359.245 312.227 352.977 312.075 346.653C311.912 339.887 312.65 333.109 312.589 326.339C312.528 319.541 311.784 312.629 312.179 305.843C312.767 295.726 314.338 285.692 314.859 275.531C315.204 268.796 314.383 262.058 314.771 255.402C315.062 250.411 316.353 245.498 316.613 240.491C317.274 227.779 315.837 216.081 319.081 203.445Z"/>
	<path fill="#010000" transform="scale(0.146484 0.146484)" d="M777.277 451.122C780.9 448.265 784.444 446.136 788.9 444.822C799.652 441.65 819.037 442.67 830.375 443.958C840.19 445.072 856.167 448.03 862.74 455.943C865.271 458.99 866.596 463.143 866.162 467.097C865.823 470.192 864.411 472.971 861.943 474.904C859.406 476.891 856.246 477.789 853.077 478.023C846.169 478.531 838.48 476.731 831.627 475.819C822.918 474.66 814.017 473.663 805.25 473.102L804.818 497.235C814.574 496.691 840.769 492.082 847.957 498.66C850.329 500.832 851.608 503.748 851.722 506.953C851.837 510.168 850.497 512.838 848.186 515.018C837.819 524.796 816.737 524.738 803.267 524.811C803.362 535.125 803.32 545.461 803.692 555.769C817.572 555.863 845.049 549.12 854.975 559.036C857.385 561.443 859.314 565.13 859.337 568.594C859.356 571.407 858.035 573.76 855.98 575.611C845.894 584.701 813.846 583.774 800.776 582.629C794.258 582.058 785.664 581.21 781.258 575.753C777.599 571.221 776.474 564.96 775.19 559.441C773.54 565.443 772.152 573.176 766.287 576.554C763.625 578.087 760.477 578.095 757.59 577.246C754.03 576.198 751.255 573.927 748.856 571.188C743.933 565.569 740.331 558.087 736.21 551.806C729.45 541.504 722.178 531.54 715.326 521.301C711.325 515.701 707.803 509.65 704.13 503.825C703.482 518.268 703.241 532.755 702.658 547.208C702.393 553.789 702.571 560.861 701.393 567.341C700.835 570.413 699.768 573.477 697.783 575.927C695.172 579.148 690.525 581.468 686.375 581.636C684.183 581.724 682.121 581.037 680.512 579.525C678.009 577.175 676.948 573.539 676.513 570.226C675.244 560.577 676.525 549.632 676.636 539.856C676.806 524.872 676.506 509.885 676.792 494.898C677.027 482.537 677.917 470.016 677.692 457.67C679.628 453.18 682.138 449.95 686.86 448.064C690.127 446.759 693.647 446.823 696.833 448.366C699.267 449.546 700.97 451.59 702.602 453.68C709.244 462.185 714.658 472.008 720.632 481.013C729.344 494.145 738.717 506.996 746.828 520.502C746.552 506.512 746.428 492.519 746.458 478.526C746.478 472.232 745.928 465.323 747.025 459.127C747.608 455.835 748.694 452.589 751.13 450.181C753.285 448.05 756.212 447.028 759.218 447.139C763.284 447.289 767.229 449.276 769.883 452.351C772.117 454.939 773.145 458.364 773.256 461.744L773.921 461.895L774.307 461C774.47 465.233 774.392 469.75 775.35 473.881L776.015 461.413C776.553 466.155 776.138 470.927 776.592 475.655C777.644 467.611 777.057 459.239 777.277 451.122Z"/>
	<path fill="#F22325" transform="scale(0.146484 0.146484)" d="M686.016 460.615C686.782 458.607 687.573 457.23 689.608 456.297C690.645 455.822 691.688 455.674 692.755 456.156C698.344 458.678 738.368 524.668 747.107 535.077C748.539 536.783 750.19 538.693 752.409 539.257C753.533 538.597 753.82 538.472 754.204 537.134C758.187 523.252 748.298 463.574 758.632 456.42C759.826 455.594 760.256 455.704 761.619 455.824C763.353 456.869 764.892 458.023 765.489 460.06C766.176 462.403 766.629 545.982 766.046 552.929C765.72 556.826 764.943 561.148 762.74 564.461C761.512 566.306 759.905 567.633 758.183 568.984C753.381 563.384 749.523 556.915 745.414 550.794C740.699 543.77 735.653 536.979 730.957 529.939C726.094 522.648 721.515 514.983 716.154 508.05C716.211 508.265 716.265 508.482 716.326 508.696C717.402 512.479 721.509 515.919 721.251 519.694C720.195 521.137 719.248 521.896 717.708 522.788L715.326 521.301C711.325 515.701 707.803 509.65 704.13 503.825C703.482 518.268 703.241 532.755 702.658 547.208C702.393 553.789 702.571 560.861 701.393 567.341C700.835 570.413 699.768 573.477 697.783 575.927C695.172 579.148 690.525 581.468 686.375 581.636C684.183 581.724 682.121 581.037 680.512 579.525C678.009 577.175 676.948 573.539 676.513 570.226C675.244 560.577 676.525 549.632 676.636 539.856C676.806 524.872 676.506 509.885 676.792 494.898C677.027 482.537 677.917 470.016 677.692 457.67C678.739 459.221 679.078 460.245 681.092 460.538C682.692 460.77 684.396 460.455 686.016 460.615Z"/>
	<defs>
		<linearGradient id="gradient_0" gradientUnits="userSpaceOnUse" x1="717.49042" y1="531.55347" x2="660.64673" y2="512.42981">
			<stop offset="0" stop-color="black"/>
			<stop offset="1" stop-color="#1B0402"/>
		</linearGradient>
	</defs>
	<path fill="url(#gradient_0)" transform="scale(0.146484 0.146484)" d="M704.13 503.825C703.482 518.268 703.241 532.755 702.658 547.208C702.393 553.789 702.571 560.861 701.393 567.341C700.835 570.413 699.768 573.477 697.783 575.927C695.172 579.148 690.525 581.468 686.375 581.636C684.183 581.724 682.121 581.037 680.512 579.525C678.009 577.175 676.948 573.539 676.513 570.226C675.244 560.577 676.525 549.632 676.636 539.856C676.806 524.872 676.506 509.885 676.792 494.898C677.027 482.537 677.917 470.016 677.692 457.67C678.739 459.221 679.078 460.245 681.092 460.538C682.692 460.77 684.396 460.455 686.016 460.615C684.638 469.197 684.933 478.142 684.826 486.819L684.491 526.094C684.423 540.343 683.083 557.967 684.977 571.751C686.099 572.392 686.357 572.637 687.701 572.333C689.516 571.922 690.925 570.271 691.78 568.707C698.674 556.107 691.395 493.257 698.026 487.221C699.885 486.851 700.475 486.814 702.127 487.826C706.869 490.73 714.097 502.957 716.154 508.05C716.211 508.265 716.265 508.482 716.326 508.696C717.402 512.479 721.509 515.919 721.251 519.694C720.195 521.137 719.248 521.896 717.708 522.788L715.326 521.301C711.325 515.701 707.803 509.65 704.13 503.825Z"/>
	<path fill="#C4BDBC" transform="scale(0.146484 0.146484)" d="M773.921 461.895L774.307 461C774.47 465.233 774.392 469.75 775.35 473.881L776.015 461.413C776.553 466.155 776.138 470.927 776.592 475.655C776.45 483.434 775.606 491.336 775.834 499.089C775.475 500.376 774.823 502.01 774.753 503.321L775.073 502.308L773.869 502.661L774.047 502.31C772.858 489.121 773.77 475.154 773.921 461.895Z"/>
	<path fill="#484945" transform="scale(0.146484 0.146484)" d="M773.256 461.744L773.921 461.895C773.77 475.154 772.858 489.121 774.047 502.31L773.869 502.661L775.073 502.308L774.753 503.321C774.823 502.01 775.475 500.376 775.834 499.089C775.769 505.431 775.218 511.902 774.361 518.183C771.535 506.048 773.111 475.328 773.256 461.744Z"/>
	<path fill="#F22325" transform="scale(0.146484 0.146484)" d="M802.649 450.942C817.343 450.65 831.298 451.037 845.366 455.754C849.785 457.235 855.649 458.748 857.869 463.201C857.845 465.247 857.655 466.564 856.048 468.083C854.525 469.523 853.201 469.651 851.205 469.681C843.8 469.795 835.808 467.724 828.424 466.785C818.205 465.485 808.106 465.086 797.819 464.879C797.219 471.804 794.971 496.242 797.572 501.287C802.418 510.686 831.305 501.279 840.426 504.165C842.205 504.728 842.804 504.921 843.609 506.578C839.71 518.923 805.429 513.899 795.919 519.016C794.096 523.947 795.171 532.16 795.184 537.5C795.062 543.458 793.497 554.951 796.791 560.042C801.787 567.762 834.175 560.56 844.077 562.438C846.324 562.865 849.516 563.749 850.71 565.907C851.522 567.375 851.539 568.259 851.157 569.82C845.763 573.415 824.509 575.066 817.488 575.04C808.793 575.008 799.899 574.027 791.236 573.208C790.649 572.691 790.074 572.161 789.512 571.617C786.486 568.676 784.893 565.146 784.102 561.054C782.248 551.462 783.026 540.634 783.12 530.85C783.361 505.73 785.175 480.605 784.81 455.489C790.767 453.364 796.293 451.351 802.649 450.942Z"/>
	<path fill="#010000" transform="scale(0.146484 0.146484)" d="M379.473 441.567C385.807 440.978 392.327 440.7 398.662 441.421C411.662 442.9 423.194 448.089 431.403 458.52C438.463 467.491 441.364 478.408 439.814 489.753C438.612 498.555 433.898 506.196 426.862 511.521C434.371 515.886 440.15 521.187 444.311 528.901C448.878 537.366 451.956 548.701 448.997 558.185C446.368 566.613 439.683 571.523 432.246 575.533C427.461 577.705 422.423 579.217 417.301 580.355C404.322 583.238 371.187 584.762 359.961 576.987C357.453 575.25 357.209 572.876 356.738 570.04C354.681 557.656 355.459 454.688 360.249 448.638C364.775 442.922 372.795 442.481 379.473 441.567Z"/>
	<path fill="#F22325" transform="scale(0.146484 0.146484)" d="M383.437 449.578C385.745 449.386 388.048 449.366 390.362 449.38C402.599 449.454 414.988 452.341 423.801 461.432C429.457 467.314 432.535 475.209 432.354 483.368C432.037 496.905 423.179 504.497 414.126 513.228C421.479 518.773 429.346 522.055 435.271 529.538C439.913 535.402 443.395 543.774 442.396 551.37C441.587 557.519 437.759 561.721 433.05 565.34C418.072 574.222 398.62 575.456 381.608 573.389C376.067 572.715 368.763 571.642 365.101 566.961C362.136 556.177 364.22 531.417 364.503 519.33C365.024 497.021 364.39 474.981 367.483 452.778C372.646 451.073 378.053 450.206 383.437 449.578Z"/>
	<path fill="#010000" transform="scale(0.146484 0.146484)" d="M377.899 520.909C382.823 520.583 387.728 520.345 392.666 520.49C403.756 520.817 417.731 525.522 425.428 533.833C428.256 536.887 430.098 540.675 429.775 544.929C429.38 550.129 425.658 554.741 421.828 557.977C415.125 562.141 407.643 563.568 399.829 563.665C393.113 563.748 383.304 563.45 378.381 558.12C374.353 553.76 375.368 536.669 375.497 530.741C375.576 527.089 375.147 523.535 377.899 520.909Z"/>
	<path fill="#C7A199" transform="scale(0.146484 0.146484)" d="M385.115 529.004C387.423 528.864 389.735 528.787 392.047 528.775C400.786 528.732 413.579 532.637 419.675 539.139C420.934 540.481 421.808 542.139 421.705 544.02C421.52 547.363 418.824 549.45 416.481 551.442C405.639 556.557 395.28 556.33 383.983 552.792C383.799 546.821 383.722 540.847 383.752 534.873C383.782 532.708 383.523 530.551 385.115 529.004Z"/>
	<defs>
		<linearGradient id="gradient_1" gradientUnits="userSpaceOnUse" x1="379.20432" y1="462.68988" x2="406.17807" y2="505.03845">
			<stop offset="0" stop-color="#030000"/>
			<stop offset="1" stop-color="#1F0E0A"/>
		</linearGradient>
	</defs>
	<path fill="url(#gradient_1)" transform="scale(0.146484 0.146484)" d="M387.548 460.942C392.547 460.566 397.942 460.528 402.797 461.92C408.988 463.694 414.307 467.399 417.368 473.161C420.411 478.887 421.039 486.482 419.124 492.661C416.831 500.06 411.652 504.139 405.065 507.574C402.645 508.596 400.152 509.436 397.606 510.086C392.636 511.311 383.235 513.449 378.563 510.701C377.018 508.105 376.5 504.837 376.246 501.854C375.744 495.947 375.79 465.479 378.566 462.218C381.379 461.086 384.548 461.142 387.548 460.942Z"/>
	<path fill="#C7A199" transform="scale(0.146484 0.146484)" d="M384.966 468.867C393.269 468.377 402.102 468.136 408.677 474.13C411.482 476.687 413.456 480.111 413.464 483.979C413.474 489.131 410.233 494.009 406.704 497.466C399.379 502.164 392.38 502.683 383.924 502.986C384.903 491.665 384.405 480.222 384.966 468.867Z"/>
	<path fill="#010000" transform="scale(0.146484 0.146484)" d="M886.48 444.741C887.148 444.726 887.79 444.722 888.458 444.757C909.53 445.886 942.24 459.613 956.443 475.367C968.364 488.591 972.461 507.888 971.333 525.235C970.039 545.131 961.838 559.87 947.059 572.757C946.048 573.514 944.987 574.202 943.884 574.817C928.859 583.192 908.6 584.872 892.129 580.054C885.911 578.235 878.824 574.336 875.866 568.245C873.701 563.785 873.691 557.258 873.646 552.412C873.437 529.886 877.601 507.153 876.975 484.586C876.767 477.107 873.194 459.909 875.437 453.998C877.282 449.138 881.961 446.604 886.48 444.741Z"/>
	<path fill="#F22325" transform="scale(0.146484 0.146484)" d="M885.716 452.685C904.166 452.711 935.2 465.716 948.687 478.777C959.211 488.968 963.131 503.843 963.273 518.108C963.442 535.171 958.722 549.627 946.613 561.905C943.867 564.339 940.858 566.533 937.549 568.137C924.872 574.28 906.824 576.579 893.359 571.746C888.926 570.155 884.138 566.907 882.343 562.371C880.952 558.855 881.016 553.192 881.042 549.431C881.099 541.315 882.257 533.202 882.796 525.11C883.736 510.996 884.229 496.657 884.47 482.516C884.624 473.438 882.26 460.94 885.716 452.685Z"/>
	<path fill="#010000" transform="scale(0.146484 0.146484)" d="M897.432 468.62C897.831 468.612 898.231 468.612 898.63 468.621C911.554 468.971 929.809 478.585 938.497 488.092C948.658 499.212 951.442 511.815 950.666 526.541C950.072 537.822 945.946 548.017 937.513 555.691C932.264 558.94 926.79 561.319 920.772 562.739C914.211 564.288 903.139 565.698 897.191 561.664C894.292 559.698 893.714 557.133 893.222 553.864C891.359 541.496 892.545 486.497 894.965 474.142C895.387 471.986 896.13 470.387 897.432 468.62Z"/>
	<path fill="#C7A199" transform="scale(0.146484 0.146484)" d="M902.729 476.266C911.345 480.254 921.434 483.995 928.62 490.316C937.387 498.039 942.618 509.01 943.1 520.686C943.652 531.46 940.501 540.425 933.354 548.449C927.194 553.19 919.462 554.981 911.845 555.882C908.246 556.308 904.586 556.684 901.589 554.305C897.961 545.863 901.673 488.894 902.729 476.266Z"/>
	<path fill="#010000" transform="scale(0.146484 0.146484)" d="M599.109 500.356C599.254 516.637 602.287 557.747 598.842 571.544C598.197 574.13 596.733 576.551 594.871 578.443C592.411 580.943 589.098 582.792 585.516 582.759C582.404 582.73 579.717 581.394 577.573 579.173C570.022 571.355 572.342 554.993 572.848 545.032C573.9 524.319 574.026 503.774 573.923 483.038C573.882 474.649 572.464 465.498 573.484 457.254C573.879 454.059 574.78 451.168 577.288 448.999C580.311 446.384 584.737 445.878 588.584 446.317C594.857 447.031 599.499 450.865 603.186 455.716C610.023 464.711 615.413 475.133 621.546 484.639C629.612 497.142 638.727 509.085 645.715 522.23C645.925 504.801 643.239 474.517 645.964 458.854C646.476 455.911 647.405 452.569 649.687 450.51C652.159 448.281 656.216 446.807 659.536 447.03C663.189 447.276 666.544 449.18 668.887 451.954C670.895 454.33 671.629 456.563 672.059 459.581C673.855 472.208 672.552 485.922 672.488 498.663C672.385 519.08 673.617 540.196 671.201 560.465C670.505 566.31 669.648 571.286 664.776 575.225C661.646 577.743 657.624 578.874 653.64 578.356C651.587 578.073 650.114 577.242 648.429 576.091C642.363 568.986 637.437 560.093 632.361 552.222C625.441 541.491 618.235 530.891 611.597 519.988C607.529 513.38 603.494 506.76 599.109 500.356Z"/>
	<path fill="#F22325" transform="scale(0.146484 0.146484)" d="M619.366 517.525C615.672 511.689 601.339 486.195 595.409 484.937C595.189 484.891 594.961 484.899 594.736 484.879C590.75 488.837 591.846 500.897 591.826 506.184L591.713 546.008C591.67 552.233 592.2 559.025 591.267 565.145C590.83 568.007 589.871 571.327 587.707 573.36C586.623 574.379 585.922 574.498 584.487 574.524C582.546 573.438 581.583 571.733 580.982 569.611C578.102 559.439 580.766 540.095 581.08 528.994C581.389 518.076 581.367 507.134 581.461 496.212C581.556 485.218 580.667 474.05 581.154 463.093C581.24 461.157 581.384 458.728 582.389 457.041C583.02 455.982 584.297 455.186 585.498 454.913C587.601 454.435 590.555 454.983 592.259 456.339C597.405 460.433 601.563 468.799 605.15 474.344L631.67 514.875C635.953 521.559 640.106 530.384 645.394 536.148C646.899 537.788 648.122 538.958 650.361 539.31C651.961 538.548 652.547 538.123 653.195 536.417C657.725 524.473 647.05 460.989 657.466 454.746C659.664 454.939 661.642 455.869 663.052 457.641C664.605 459.593 664.601 463.355 664.703 465.772C665.157 476.503 664.159 487.408 664.15 498.164L664.003 537.553C663.949 543.685 664.482 550.364 663.409 556.406C662.34 562.434 660.028 566.143 656.418 570.984C652.512 571.404 650.932 573.384 648.429 576.091C642.363 568.986 637.437 560.093 632.361 552.222C625.441 541.491 618.235 530.891 611.597 519.988C614.08 520.069 616.418 520.36 618.745 519.341L619.366 517.525Z"/>
	<path fill="#1D0503" transform="scale(0.146484 0.146484)" d="M619.366 517.525C631.156 535.573 643.828 553.477 656.418 570.984C652.512 571.404 650.932 573.384 648.429 576.091C642.363 568.986 637.437 560.093 632.361 552.222C625.441 541.491 618.235 530.891 611.597 519.988C614.08 520.069 616.418 520.36 618.745 519.341L619.366 517.525Z"/>
	<path fill="#010000" transform="scale(0.146484 0.146484)" d="M513.494 445.505C514.724 445.569 516.001 445.619 517.219 445.827C521.38 446.536 525.433 448.542 527.74 452.201C531.789 458.626 535.648 480.208 537.845 488.561C542.634 506.772 547.965 526.088 556.482 542.931C560.352 550.583 571.125 563.886 568.584 572.782C567.5 576.578 564.542 579.909 561.022 581.638C558.241 583.003 554.99 583.372 552.045 582.296C538.165 577.222 531.495 557.132 526.232 544.642L516.619 544.783C509.694 544.713 502.769 544.605 495.845 544.459C492.696 552.156 491.438 560.52 488.41 568.295C486.508 573.179 483.728 579.072 478.559 581.157C475.763 582.285 472.666 581.94 469.95 580.737C465.401 578.722 461.765 574.404 460.184 569.704C459.187 566.739 459.286 564.091 459.859 561.069C461.507 552.376 465.37 544.231 468.418 535.965C473.153 523.127 477.332 510.241 483.101 497.797C488.479 486.197 500.788 458.535 507.876 449.663C509.483 447.652 511.063 446.397 513.494 445.505Z"/>
	<path fill="#F22325" transform="scale(0.146484 0.146484)" d="M515.319 452.963C515.544 453.037 515.771 453.104 515.994 453.184C523.084 455.727 525.757 474.7 527.624 481.731C533.377 503.403 539.086 525.626 548.736 545.926C552.433 553.705 557.632 560.571 561.346 568.343C560.345 569.907 559.095 572.181 557.345 573.01C556.068 573.615 554.537 573.419 553.263 572.911C544.285 569.338 535.808 545.412 532.484 536.602L515.553 536.808C507.018 536.796 498.484 536.64 489.955 536.34C485.964 546.148 484.127 559.763 478.849 568.507C477.711 570.393 476.78 571.643 474.614 572.236C473.598 571.982 472.678 571.767 471.809 571.155C469.898 569.81 468.343 567.36 468.134 565.01C467.518 558.099 472.806 548.086 475.116 541.643C479.517 529.373 483.407 516.861 488.538 504.861C492.924 494.603 498.562 484.639 503.491 474.608C506.971 467.524 510.24 459.015 515.319 452.963Z"/>
	<path fill="#010000" transform="scale(0.146484 0.146484)" d="M512.853 480.356C513.938 480.44 514.956 480.55 515.873 481.2C520.588 484.544 527.52 516.953 528.336 523.834C522.709 523.962 517.071 524.315 511.449 524.578C506.213 524.682 500.095 525.385 494.998 524.237L494.454 522.907C495.168 514.642 507.784 487.158 512.853 480.356Z"/>
	<path fill="#C4BDBC" transform="scale(0.146484 0.146484)" d="M513.329 496.396C515.803 502.144 516.846 509.224 518.608 515.307L512.397 515.963C510.189 516.034 508.023 515.945 505.82 515.83C505.326 514.031 512.208 499.015 513.329 496.396Z"/>
	<path fill="#010000" transform="scale(0.146484 0.146484)" d="M483.651 294.893C492.494 294.486 501.329 295.684 508.476 301.323C517.184 308.192 521 320.001 522.185 330.645C524.03 347.212 520.323 363.744 509.814 376.867C501.667 387.04 493.205 390.549 480.517 392.016C471.157 391.675 461.611 389.451 453.987 383.771C446.337 378.073 441.585 369.747 440.208 360.341C437.787 343.804 444.339 324.652 454.378 311.599C462.124 301.527 471.14 296.475 483.651 294.893Z"/>
	<path fill="#F22325" transform="scale(0.146484 0.146484)" d="M482.436 302.187C490.098 301.501 497.943 302.355 504.123 307.332C511.483 313.26 514.785 323.581 515.671 332.671C517.062 346.948 513.167 360.67 504.03 371.769C497.857 379.267 491.711 383.099 482.003 384.03C474.052 383.661 466.872 382.546 460.064 378.127C453.827 374.079 449.578 368.33 448.146 360.983C445.448 347.144 450.837 329.331 458.716 317.945C464.615 309.42 472.204 303.983 482.436 302.187Z"/>
	<path fill="#010000" transform="scale(0.146484 0.146484)" d="M482.411 311.535C487.541 311.262 491.772 311.673 496.203 314.655C501.591 318.283 504.34 324.205 505.497 330.431C507.523 341.327 505.877 353.94 499.437 363.164C494.914 369.643 489.291 372.582 481.661 373.906C475.942 373.974 470.623 373.503 465.77 370.173C461.094 366.964 458.401 361.93 457.433 356.426C455.527 345.601 458.337 332.383 464.645 323.379C469.185 316.898 474.575 312.952 482.411 311.535Z"/>
	<path fill="#C7A199" transform="scale(0.146484 0.146484)" d="M480.81 319.366C483.721 319 486.831 319.073 489.591 320.183C493.325 321.686 495.864 324.779 497.333 328.449C500.258 335.755 499.444 346.335 496.342 353.461C493.46 360.079 489.089 364.012 482.471 366.646C479.962 366.659 477.31 366.774 474.842 366.274C469.646 365.222 467.277 361.885 464.664 357.684C464.296 351.307 464.206 345.202 465.81 338.968C468.116 330.01 472.907 323.978 480.81 319.366Z"/>
	<path fill="#F22325" transform="scale(0.146484 0.146484)" d="M717.122 306.758C717.397 303.722 718.223 301.393 720.631 299.387C725.749 295.123 734.685 295.074 740.972 295.857C752.366 297.277 763.675 303.449 770.692 312.602C774.793 317.951 777.423 324.613 776.383 331.426C775.254 338.818 770.302 344.233 764.926 349.009C773.019 355.278 780.841 365.291 782.09 375.781C782.574 379.845 782.114 385.261 779.432 388.514C777.826 390.462 775.512 391.184 773.063 391.302C769.982 391.449 766.924 390.79 764.666 388.575C762.476 386.425 761.322 383.543 760.131 380.78C755.423 369.852 749.916 365.271 738.79 361.15C738.682 369.173 740.76 382.761 734.853 388.926C732.435 391.45 729.025 392.42 725.599 392.417C722.742 392.415 720.327 391.417 718.312 389.386C716.863 387.926 715.626 386.002 714.863 384.09L713.682 383.844L713.995 379.751L715.109 373.271C715.172 364.723 715.416 356.178 715.841 347.64C716.623 334.047 715.836 320.294 717.122 306.758Z"/>
	<path fill="#010000" transform="scale(0.146484 0.146484)" d="M717.122 306.758C717.397 303.722 718.223 301.393 720.631 299.387C725.749 295.123 734.685 295.074 740.972 295.857C752.366 297.277 763.675 303.449 770.692 312.602C774.793 317.951 777.423 324.613 776.383 331.426C775.254 338.818 770.302 344.233 764.926 349.009C773.019 355.278 780.841 365.291 782.09 375.781C782.574 379.845 782.114 385.261 779.432 388.514C777.826 390.462 775.512 391.184 773.063 391.302C769.982 391.449 766.924 390.79 764.666 388.575C762.476 386.425 761.322 383.543 760.131 380.78C755.423 369.852 749.916 365.271 738.79 361.15C738.682 369.173 740.76 382.761 734.853 388.926C732.435 391.45 729.025 392.42 725.599 392.417C722.742 392.415 720.327 391.417 718.312 389.386C716.863 387.926 715.626 386.002 714.863 384.09L713.682 383.844L713.995 379.751L715.109 373.271C715.172 364.723 715.416 356.178 715.841 347.64C718.408 346.535 720.691 345.641 723.465 345.166C723.172 352.2 720.509 377.391 723.325 382.828C723.983 384.098 724.311 384.137 725.582 384.565C727.015 384.202 727.797 384.148 728.861 382.978C733.284 378.115 731.351 358.242 731.259 351.872C743.715 353.679 759.96 359.663 765.074 372.394C766.207 375.214 767.111 380.328 769.23 382.342C770.429 383.482 771.095 383.686 772.675 383.565C773.149 383.179 773.207 383.182 773.593 382.593C774.727 380.863 774.584 376.894 774.185 374.959C771.829 363.53 760.463 355.045 751.457 348.96C756.773 345.24 762.935 341.063 766.586 335.62C768.559 332.68 769.318 329.54 768.552 326.049C766.906 318.559 759.61 311.744 753.352 307.863C746.913 303.869 738.221 301.408 730.713 303.391C727.659 304.198 725.925 305.525 724.427 308.274C721.882 308.02 719.458 307.915 717.122 306.758Z"/>
	<path fill="#91817A" transform="scale(0.146484 0.146484)" d="M715.109 373.271C715.123 376.813 715.395 380.595 714.863 384.09L713.682 383.844L713.995 379.751L715.109 373.271Z"/>
	<path fill="#1D0503" transform="scale(0.146484 0.146484)" d="M717.122 306.758C719.458 307.915 721.882 308.02 724.427 308.274C723.707 320.565 724.182 332.894 723.465 345.166C720.691 345.641 718.408 346.535 715.841 347.64C716.623 334.047 715.836 320.294 717.122 306.758Z"/>
	<path fill="#010000" transform="scale(0.146484 0.146484)" d="M740.798 308.57C747.336 308.851 752.122 311.919 756.438 316.701C758.104 318.533 759.532 320.57 760.687 322.761C761.332 328.613 761.271 332.827 757.405 337.628C756.557 338.68 755.612 339.623 754.615 340.532C752.985 341.922 751.026 343.149 749.13 344.144C742.884 347.422 736.955 345.682 730.65 343.669C729.66 332.522 729.821 321.195 729.923 310.014C733.521 309.387 737.172 309.011 740.798 308.57Z"/>
	<path fill="#C7A199" transform="scale(0.146484 0.146484)" d="M736.572 337.751C736.49 335.053 736.383 332.357 736.252 329.661C736.089 325.831 735.324 319.108 738.076 316.114L741.461 316.137C747.565 319.044 750.536 321.324 754.105 327.234C753.332 330.528 752.302 333.6 749.541 335.808C745.611 338.953 741.172 338.377 736.572 337.751Z"/>
	<path fill="#1D0503" transform="scale(0.146484 0.146484)" d="M740.798 308.57C747.336 308.851 752.122 311.919 756.438 316.701C758.104 318.533 759.532 320.57 760.687 322.761C761.332 328.613 761.271 332.827 757.405 337.628C756.557 338.68 755.612 339.623 754.615 340.532C755.486 338.088 756.791 335.209 756.906 332.609C757.015 330.137 755.717 328.953 754.105 327.234C750.536 321.324 747.565 319.044 741.461 316.137L742.838 313.687C742.765 311.405 741.932 310.448 740.798 308.57Z"/>
	<path fill="#010000" transform="scale(0.146484 0.146484)" d="M798.138 298.202L799.081 298.16C810.458 297.68 835.053 295.353 843.455 303.654C845.581 305.744 846.725 308.635 846.605 311.614C846.526 313.941 845.666 315.972 843.919 317.529C836.747 323.92 817.508 320.519 808.361 320.004C808.283 324.984 808.365 329.976 808.377 334.958C817.12 334.847 830.724 332.813 837.9 338.702C840.005 340.429 841.116 342.788 841.212 345.501C841.318 348.485 840.378 351.391 838.209 353.492C831.581 359.914 817.421 358.112 808.896 358.021C808.68 360.991 807.885 365.994 809.328 368.593C816.302 368.532 835.046 366.842 840.822 369.944C843.234 371.239 844.893 373.242 845.658 375.882C846.391 378.414 846.103 380.975 844.762 383.252C842.488 387.112 837.846 389.42 833.673 390.616C823.348 393.577 802.907 394.175 793.425 388.856C789.282 386.532 786.499 382.945 785.329 378.32C783.334 370.426 784.362 322.728 785.7 312.577C786.083 309.668 786.695 306.295 788.28 303.79C790.597 300.128 794.144 299.006 798.138 298.202Z"/>
	<path fill="#F22325" transform="scale(0.146484 0.146484)" d="M802.156 305.558C808.202 305.362 814.251 305.302 820.3 305.379C826.734 305.46 833.361 305.082 838.126 310.177C838.953 311.062 838.878 311.041 838.811 312.233C836.351 313.028 806.327 313.187 800.506 313.594L800.479 342.275C808.557 343.144 816.642 342.328 824.704 342.957C827.49 343.174 831.215 343.501 833.112 345.737L832.897 347.184C831.882 348.227 830.79 349.399 829.385 349.894C824.153 351.74 809.007 350.34 802.252 350.696C801.856 353.574 801.818 356.528 801.666 359.428C801.637 361.895 800.823 373.433 802.45 374.817C806.531 378.287 832.532 376.114 839.148 376.157C837.166 379.691 835.399 382.247 831.293 383.43C825.285 385.161 801.544 385.042 796.152 381.714C793.966 380.364 793.506 377.717 793.004 375.361C791.234 367.06 791.073 312.707 794.636 308.043C796.476 305.634 799.408 305.768 802.156 305.558Z"/>
	<path fill="#010000" transform="scale(0.146484 0.146484)" d="M531.254 294.709C534.705 294.31 539.421 294.047 542.25 296.475C548.116 301.511 546.667 338.36 547.544 347.746C548.153 354.258 549.844 363.795 555.434 368.033C557.63 369.699 560.315 370.16 563.005 369.767C566.838 369.208 570.512 367.603 572.593 364.208C580.456 351.384 570.383 308.049 577.49 299.005C579.323 296.673 582.119 295.463 585.049 295.356C587.239 295.277 589.2 295.973 590.748 297.551C596.657 303.574 595.322 317.966 595.496 325.904C595.705 336.379 596.392 347.385 595.163 357.811C593.9 368.523 589.145 378.153 580.467 384.779C573.369 390.2 564.63 392.1 555.84 390.918C546.911 389.717 539.56 385.069 534.176 377.902C523.046 363.083 524.864 342.777 524.784 325.269C524.746 317.106 524.204 308.589 525.411 300.504C527.185 298.114 528.882 296.486 531.254 294.709Z"/>
	<path fill="#F22325" transform="scale(0.146484 0.146484)" d="M533.975 302.354C534.644 302.494 535.219 302.638 535.819 302.978C537.382 303.865 537.92 304.899 538.301 306.637C539.307 311.234 539.096 316.148 539.227 320.832C539.59 333.753 538.989 348.248 542.585 360.718C544.256 366.509 547.317 372.171 552.912 374.991C557.472 377.29 564.34 377.589 569.138 375.826C574.285 373.935 577.971 370.079 579.917 364.993C583.96 354.424 581.626 328.778 581.792 316.211C581.85 311.846 581.66 306.25 583.499 302.214L585.279 302.787C587.22 306.382 587.22 310.512 587.552 314.504C589.306 324.536 589.649 350.305 587.626 359.981C586.71 364.358 585.034 368.519 582.427 372.166C578.283 377.962 571.7 382.857 564.565 384.015C558.369 385.021 551.921 383.243 546.878 379.564C537.653 372.835 533.487 360.962 531.948 350.067C530.835 342.188 530.123 313.528 531.55 306.758C531.901 305.09 532.975 303.693 533.975 302.354Z"/>
	<path fill="#010000" transform="scale(0.146484 0.146484)" d="M665.19 366.667C660.923 373.8 659.81 384.457 651.944 388.84C649.202 390.368 645.99 390.465 643.023 389.574C640.547 388.831 638.563 387.312 637.473 384.934C633.758 376.833 640.015 363.445 643.001 355.855C647.05 345.566 653.074 335.679 658.21 325.883C662.151 318.366 665.832 309.671 670.754 302.769C672.27 300.642 674.418 298.296 676.889 297.353C678.818 296.617 680.861 296.737 682.713 297.629C686.801 299.6 689.696 303.844 691.525 307.871C696.367 318.533 698.622 335.394 701.948 347.161C705.093 358.288 709.907 368.946 713.995 379.751L713.682 383.844C712.292 386.803 710.255 389.516 707.596 391.466C705.954 392.67 703.993 393.363 701.959 392.873C691.095 390.252 688.357 375.116 683.073 367.097C682.949 366.91 682.82 366.727 682.693 366.542C676.834 366.118 671.048 366.406 665.19 366.667Z"/>
	<path fill="#F22325" transform="scale(0.146484 0.146484)" d="M678.858 304.24C680.679 304.906 682.066 306.359 682.987 308.035C688.385 317.856 692.097 343.851 696.354 356.242C698.423 362.26 705.571 375.877 705.639 381.655C705.643 382.018 705.586 382.62 705.509 382.984C705.446 383.279 705.358 383.568 705.282 383.859C704.324 384.417 704.361 384.665 703.194 384.391C697.212 382.987 691.377 365.26 687.924 360.128L687.399 359.355C683.29 359.182 679.159 359.2 675.046 359.135C670.422 359.142 665.531 358.705 661.225 360.645C655.07 363.418 655.78 369.366 653.606 374.754C652.674 377.063 650.019 381.361 647.454 382.255C646.633 382.542 646.069 381.868 645.389 381.457C644.87 380.514 644.482 379.744 644.382 378.654C643.321 367.064 671.049 313.745 678.858 304.24Z"/>
	<path fill="#010000" transform="scale(0.146484 0.146484)" d="M675.362 324.957C676.677 325.125 677.52 325.066 678.584 325.98C683.58 330.268 684.05 344.394 684.827 350.648L673.175 350.772L661.638 350.654C665.929 342.337 669.758 332.386 675.362 324.957Z"/>
	<path fill="#010000" transform="scale(0.146484 0.146484)" d="M378.728 294.043C380.328 294.021 382.149 293.946 383.709 294.373C393.671 297.1 400.982 316.382 405.417 324.825C409.922 316.101 416.581 298.839 426.341 295.251C429.317 294.158 433.503 294.296 436.326 295.784C438.314 296.832 439.569 298.539 440.206 300.676C443.575 311.973 425.071 343.868 419.26 355.32C415.466 363.533 407.295 385.994 399.718 390.152C396.718 391.797 393.159 391.663 390.014 390.516C387.456 389.583 385.407 388.26 384.265 385.705C380.971 378.329 390.251 362.006 392.91 354.527C388.201 345.499 369.45 310.938 371.016 302.876C371.871 298.471 375.207 296.272 378.728 294.043Z"/>
	<path fill="#F22325" transform="scale(0.146484 0.146484)" d="M429.719 301.712C430.542 301.904 431.187 302.23 431.946 302.591C432.212 303.157 432.349 303.375 432.51 303.937C435.087 312.888 411.736 352.515 406.819 362.297C404.27 367.367 402.441 372.815 399.789 377.807C398.49 380.251 397.463 382.199 394.708 383.043C393.679 382.623 393.055 382.639 392.484 381.627C389.973 377.176 399.463 358.75 401.051 353.128L401.281 352.295L395.405 341.596C390.549 332.844 382.558 317.887 380.189 308.44C379.609 306.123 379.429 305.053 380.677 303.051C381.576 302.878 381.987 302.651 382.879 302.987C387.71 304.804 401.993 334.559 404.551 340.165C407.444 335.727 410.369 331.259 412.918 326.614C417.688 317.918 421.323 307.543 429.719 301.712Z"/>
	<path fill="#484945" transform="scale(0.146484 0.146484)" d="M1019.66 188.07C1025.07 187.513 1054.83 192.055 1058.72 194.851C1062.29 200.844 1062.3 213.815 1062.53 220.961C1062.82 229.924 1062.49 245.084 1056 252.022C1056.44 252.596 1056.88 253.176 1057.25 253.802C1063.78 264.74 1061.3 286.376 1061.9 298.963C1062.28 306.892 1063.42 315.01 1063.27 322.924C1063.19 327.007 1060.53 331.18 1059.54 335.149C1058.48 339.362 1058.39 343.807 1058.25 348.127C1058.12 351.858 1057.6 356.284 1058.29 359.958C1059.46 366.164 1062.21 370.632 1061.99 377.242C1061.52 391.413 1058 405.325 1057.23 419.341L1051.27 551.373C1051.01 556.712 1053.85 561.698 1053.76 567.046C1053.65 574.098 1051.08 580.964 1050.84 588.072C1050.6 595.404 1050.28 602.834 1050.46 610.168C1050.64 616.993 1051.26 623.8 1051.01 630.633C1050.54 643.209 1048.54 655.775 1048.28 668.349C1048.03 680.017 1049.05 712.215 1046.32 721.892C1045.8 723.765 1043.62 724.752 1042.08 725.667C1040.92 727.399 1039.8 728.282 1038.07 729.437C1031.23 728.893 1024.56 728.502 1018.04 726.16C1013.26 724.445 1007.7 721.583 1005.94 716.487C1003.3 708.822 1002.9 642.378 1003.81 630.482C1004.31 623.987 1007.35 617.729 1007.64 611.257C1007.98 603.796 1006.05 596.155 1006.28 588.566C1006.45 583.229 1007.42 577.947 1007.87 572.632C1009.02 558.891 1010.34 544.849 1010.88 531.079C1011.24 521.635 1008.84 512.306 1009.16 502.818C1009.67 488.041 1013.29 473.486 1012.79 458.603C1012.46 448.844 1009.67 439.303 1009.7 429.47C1009.72 421.165 1011.7 412.891 1012.1 404.593C1012.4 398.352 1011.84 392.05 1011.94 385.796C1012.07 376.815 1012.73 367.869 1012.53 358.876C1012.41 353.259 1011.57 347.607 1011.64 341.998C1011.71 336.805 1012.76 331.57 1013.19 326.39C1013.81 318.803 1013.9 310.036 1013.4 302.433C1013.25 300.223 1012.17 298.145 1011.23 296.173C1014.04 286.991 1012.6 277.144 1012.56 267.64L1012.19 223.53C1012.17 215.68 1013.41 208.177 1013.69 200.437C1013.8 197.261 1013.3 194.132 1013.41 190.938C1015.03 189.249 1017.48 188.771 1019.66 188.07Z"/>
	<path fill="#484945" transform="scale(0.146484 0.146484)" d="M292.109 194.82C294.358 194.641 296.305 194.429 298.521 195.011C299.458 196.202 299.516 197.521 299.602 198.98C299.993 205.622 299.207 212.433 299.469 219.145C299.84 228.608 301.221 238.229 301.253 247.667C301.265 251.257 300.041 254.724 299.951 258.341C300.673 259.701 301.881 261.555 301.816 263.15C301.678 266.56 300.089 270.286 299.638 273.777C298.413 283.254 297.468 297.057 297.444 306.549C297.39 327.624 300.171 349.077 301.019 370.157C301.226 375.314 299.893 380.479 300.008 385.642C300.096 389.598 301.886 393.34 301.838 397.323C301.782 401.909 299.654 406.355 299.58 410.889C299.526 414.183 301.444 417.521 301.792 420.855C302.73 429.837 302.299 439.699 302.161 448.741C301.959 461.954 299.984 475.471 299.104 488.687C298.714 494.546 298.895 500.377 298.666 506.232L296.946 541.241C296.074 562.34 297.931 584.441 294.865 605.341C295.958 607.252 296.471 608.39 296.237 610.599C294.615 625.87 295.554 641.293 296.174 656.587C297.18 681.399 298.351 706.879 295.13 731.594C294.914 733.251 294.673 735.139 293.196 736.134C287.902 739.697 264.364 737.869 257.791 736.148C250.746 733.977 243.598 735.057 236.375 735.575C235.294 725.009 234.614 708.844 236.941 698.46C237.949 693.962 240.817 690.177 241.339 685.499C242.338 676.529 239.354 667.862 240.118 658.989C240.729 651.889 244.331 645.212 244.993 638.009C245.689 630.45 243.458 622.801 244.645 615.202C245.604 609.066 248.909 603.544 249.388 597.249C249.811 591.696 248.047 586.226 248.006 580.687C247.942 571.979 250.605 563.201 251.047 554.49C251.313 549.242 249.458 544.11 249.673 538.89C250.029 530.192 253.926 520.304 254.424 510.525C254.813 502.891 254.317 495.287 254.367 487.656C254.401 482.469 255.075 477.307 255.163 472.122C255.313 463.314 254.901 454.502 255.308 445.697C255.882 433.306 258.646 421.133 259.627 408.801C260.406 398.999 260.317 389.14 261.191 379.311C262.54 364.142 264.892 349.097 265.928 333.879C266.297 328.462 265.154 323.072 265.627 317.675C266.69 305.543 273.162 295.025 274.403 282.747C275.425 272.636 275.199 262.544 275.959 252.444C276.662 243.12 281.516 204.176 285.114 198.654C286.814 196.043 289.295 195.53 292.109 194.82Z"/>
	<path fill="#70645C" transform="scale(0.146484 0.146484)" d="M864.708 750.058C871.442 750.315 878.236 748.783 884.988 748.622C894.955 748.384 904.949 749.343 914.916 749.385C915.797 755.182 917.627 760.112 919.975 765.457C918.764 772.541 919.833 779.427 919.107 786.508C918.727 796.341 917.465 806.598 917.766 816.396C917.825 824.979 919.044 836.32 916.738 844.49C916.456 846.713 916.28 849.015 915.794 851.201C914.397 859.9 911.455 870.695 911.961 879.365C912.394 886.767 914.789 893.713 914.388 901.239C913.699 914.16 910.262 926.69 910.487 939.688C904.903 940.449 850.353 940.931 847.367 939.469C845.541 930.812 850.306 910.509 853.044 901.499C848.809 891.174 849.084 882.545 849.043 871.575C853.145 865.364 854.672 857.943 853.445 850.554L851.936 849.862C850.382 844.678 856.211 785.568 857.651 778.034C859.482 768.454 863.543 759.941 864.708 750.058Z"/>
	<path fill="#696462" transform="scale(0.146484 0.146484)" d="M898.129 866.282C896.158 864.199 894.016 862.128 891.502 860.703C891.329 860.605 891.147 860.524 890.969 860.434L891.007 859.846L890.524 859.59C894.078 857.988 899.377 856.363 902.001 853.496C902.608 850.829 901.231 848.795 900.271 846.27C900.944 843.16 904.919 840.466 906.929 837.736C907.564 836.873 907.795 836.924 908.755 836.538C911.214 838.476 910.829 842.336 913.321 844.397C914.931 844.367 914.958 844.536 916.073 843.409L916.738 844.49C916.456 846.713 916.28 849.015 915.794 851.201C915.68 851.334 915.561 851.463 915.453 851.601C911.839 856.233 913.175 864.433 912.127 866.142C911.958 866.419 910.797 866.804 910.671 866.834C907.675 867.561 904.966 866.158 902.1 866.026C900.751 865.963 899.474 866.312 898.129 866.282Z"/>
	<path fill="#796A64" transform="scale(0.146484 0.146484)" d="M898.129 866.282C898.211 863.441 897.677 859.33 899.269 856.963C899.982 856.803 900.718 856.587 901.445 856.514C902.085 859.482 902.933 862.149 901.276 864.923C900.216 865.526 899.302 865.947 898.129 866.282Z"/>
	<path fill="#696462" transform="scale(0.146484 0.146484)" d="M909.778 807.667C911.491 809.479 913.127 811.7 915.563 812.466C920.28 809.424 914.658 792.095 919.107 786.508C918.727 796.341 917.465 806.598 917.766 816.396C917.611 816.118 917.483 815.824 917.302 815.563C915.248 812.613 910.358 814.338 907.289 813.764C905.877 813.5 905.577 813.432 904.794 812.277C905.685 808.837 910.021 807.133 910.778 803.534C910.309 800.219 907.986 797.616 906.031 795.009L906.994 794.929C908.88 796.319 910.321 798.08 910.896 800.389C911.137 801.357 911.313 801.864 912.034 802.587C912.257 802.81 912.493 803.021 912.722 803.238C912.738 805.247 911.128 806.252 909.778 807.667Z"/>
	<path fill="#696462" transform="scale(0.146484 0.146484)" d="M877.202 749.812L878.643 750.949C879.412 752.506 879.615 753.675 879.407 755.421C879.114 757.885 878.253 760.684 876.207 762.179C874.613 760.117 872.265 757.587 872.04 754.938C873.105 752.079 874.703 751.442 877.202 749.812Z"/>
	<path fill="#696462" transform="scale(0.146484 0.146484)" d="M889.192 779.045L890.821 779.427C892.64 781.434 894.077 783.321 894.97 785.904L894.014 787.68C891.749 786.413 889.055 785.617 887.536 783.419C887.505 781.121 887.919 780.872 889.192 779.045Z"/>
	<path fill="#796A64" transform="scale(0.146484 0.146484)" d="M887.036 839.342L888.46 839.428C890.291 840.661 891.196 840.895 891.966 843.01C891.164 844.191 890.704 844.718 889.391 845.336C888.36 845.821 888.561 845.921 887.425 845.499L889.002 843.534C887.886 842.633 886.615 842.297 885.281 841.808C883.321 843.266 882.686 845.912 881.828 848.125L880.416 847.803L881.717 848.353L880.463 848.537C880.514 847.795 880.544 847.056 880.778 846.342C881.855 843.055 883.949 840.753 887.036 839.342Z"/>
	<path fill="#796A64" transform="scale(0.146484 0.146484)" d="M893.703 867.202C895.617 867.264 897.774 867.183 899.631 867.655C900.927 867.985 901.101 868.159 901.748 869.234L900.831 871.075C898.686 871.679 896.413 872.578 894.169 872.353C893.116 870.642 893.567 869.149 893.703 867.202Z"/>
	<path fill="#796A64" transform="scale(0.146484 0.146484)" d="M895.393 874.358C897.182 874.886 898.247 875.221 899.536 876.6C899.233 878.605 898.224 879.448 896.984 880.968C896.926 880.962 896.868 880.961 896.812 880.949C894.976 880.56 894.701 880.517 893.542 878.983C893.461 876.978 894.294 875.972 895.393 874.358Z"/>
	<path fill="#70645C" transform="scale(0.146484 0.146484)" d="M410.724 750.031C428.222 749.644 445.582 750.414 463.044 751.4C464.011 764.918 458.798 772.325 457.792 784.671C456.209 804.09 460.85 824.492 459.891 844.058C459.606 849.867 457.731 855.826 456.571 861.529C454.218 873.101 452.988 884.261 453.506 896.061C450.246 895.95 446.991 896.113 443.733 896.235C428.91 897.947 414.429 902.199 399.975 905.739C399.831 899.573 397.785 893.84 397.526 887.765C397.129 878.45 397.725 868.85 397.843 859.516C397.978 848.92 397.66 838.037 398.463 827.478C399.626 812.173 402.984 797.383 405.783 782.362C407.777 771.664 409.168 760.802 410.724 750.031Z"/>
	<path fill="#91817A" transform="scale(0.146484 0.146484)" d="M407.431 858.263C408.662 858.214 410.188 858.217 411.362 858.651C412.787 859.177 414.018 859.794 414.767 861.1L413.843 862.226C410.738 863.75 407.675 863.901 404.283 864.185C403.366 864.785 402.732 865.178 401.635 865.377C399.892 865.694 399.646 865.848 398.228 864.808C398.164 863.513 398.059 863.261 398.769 862.179C400.847 859.015 403.976 858.912 407.431 858.263Z"/>
	<path fill="#796A64" transform="scale(0.146484 0.146484)" d="M408.81 868.11C409.006 868.142 409.203 868.166 409.397 868.206C411.321 868.6 411.938 869.057 412.978 870.732C413.222 873.856 411.129 877.271 409.368 879.744C407.86 879.507 407.025 879.578 405.851 878.57C405.854 875.291 408.068 872.178 408.686 868.827C408.73 868.588 408.768 868.349 408.81 868.11Z"/>
	<path fill="#696462" transform="scale(0.146484 0.146484)" d="M428.663 756.941C428.849 756.955 429.035 756.959 429.22 756.982C431.351 757.251 432.721 757.566 433.982 759.29L433.495 761.277C432.472 761.716 431.763 761.741 430.656 761.725C429.191 760.343 429.134 758.843 428.663 756.941Z"/>
	<path fill="#696462" transform="scale(0.146484 0.146484)" d="M824.16 185.343C824.316 185.336 824.473 185.331 824.628 185.322C828.819 185.074 832.727 187.375 836.546 188.932C848.467 185.023 851.362 187.947 862.549 187.899C874.627 187.848 886.732 186.564 898.812 187.071C919.885 187.956 940.677 190.982 961.802 189.559L962.659 188.489L962.815 189.252L963.629 188.978L962.657 187.945L963.156 187.03C965.288 186.87 965.262 188.709 967.398 188.62C975.647 188.277 990.251 183.742 997.462 188.878C999.206 190.12 999.644 191.573 999.905 193.61L999.067 194.47C992.447 194.84 985.993 196.124 979.451 197.077C973.735 197.909 967.945 197.963 962.219 198.655C957.769 199.193 953.405 200.252 948.928 200.627C937.394 201.592 925.721 201.123 914.164 201.97C908.917 202.354 903.909 203.775 898.715 204.363C894.472 204.843 890.134 204.211 885.975 205.322C885.799 205.369 885.625 205.425 885.449 205.476L885.399 204.785L884.776 205.748C877.413 205.043 870.193 202.332 863.355 199.628C849.752 201.886 835.619 205.623 821.791 206.096C805.298 206.66 789.21 204.42 772.747 204.403C762.63 204.392 752.3 206.747 741.816 206.879C728.245 207.05 715.101 205.096 701.932 208.977C693.887 205.23 681.163 207.151 672.365 207.305C666.745 211.927 657.317 208.43 649.055 210.795L641.278 207.255L634.666 210.394C626.428 209.053 611.091 211.834 604.388 208.354C602.387 207.315 601.164 207.197 598.902 207.261C596.859 207.227 595.031 207.24 593.036 207.759C585.743 209.659 588.954 206.634 586.193 206.888C584.733 207.023 582.353 209.433 580.809 209.282C580.529 209.255 579.506 207.521 579.115 207.345C578.984 207.286 578.831 207.388 578.689 207.411C571.76 208.519 565.233 210.02 558.197 210.708C547.321 211.772 537.977 207.001 527.311 208.374C525.294 208.633 523.775 208.79 521.769 208.411C507.225 205.662 493.172 206.651 478.54 205.889C474.166 205.661 469.674 204.459 465.254 204.022C459.003 203.403 452.695 203.596 446.437 203.064C441.26 202.624 436.123 201.448 430.958 200.81C424.652 200.032 416.162 199.735 410.175 197.428C408.909 196.941 408.511 196.964 407.931 195.712C409.589 194.568 412.202 194.569 414.179 194.451C423.128 193.913 432.003 195.32 440.914 195.853C447.29 196.234 453.697 195.803 460.078 196.184C474.262 197.03 488.16 198.665 502.428 198.372L645.553 194.539C653.12 194.37 660.635 195.515 668.201 195.487C683.271 195.432 698.659 194.392 713.739 193.743C725.247 193.247 736.195 188.225 748.947 187.917C759.735 187.657 769.96 189.108 780.659 189.776C792.168 190.495 803.942 190.342 815.472 190.211C818.327 188.035 820.741 186.478 824.16 185.343Z"/>
	<defs>
		<linearGradient id="gradient_2" gradientUnits="userSpaceOnUse" x1="434.26697" y1="676.80878" x2="463.26196" y2="769.3399">
			<stop offset="0" stop-color="#54504F"/>
			<stop offset="1" stop-color="#796C64"/>
		</linearGradient>
	</defs>
	<path fill="url(#gradient_2)" transform="scale(0.146484 0.146484)" d="M308.43 714.626C326.911 716.45 342.849 713.665 361.145 713.276C378.465 712.908 395.991 716.451 413.403 716.513C428.596 716.567 443.439 713.092 458.577 713.249C475.127 713.42 491.837 716.592 508.442 717.245C527.341 717.988 546.426 716.4 565.344 716.826C574.915 717.041 583.745 718.939 593.481 718.563C590.332 722.806 585.369 727.614 580.016 728.448C579.328 728.553 578.638 728.645 577.946 728.723L579.227 729.41C582.074 729.057 586.027 728.156 588.58 729.617C589.83 731.227 589.819 732.299 589.915 734.288L589.967 735.261C589.975 735.461 589.978 735.662 589.984 735.862L586.099 736.059C578.804 737.489 570.347 736.578 562.88 736.711C547.787 736.98 532.604 737.539 517.511 738.019C512.151 738.189 507.252 741.188 501.964 741.546C490.304 742.335 477.743 740.635 466.003 740.246C451.523 739.767 437.014 740.107 422.528 739.872C414.292 739.739 406.078 738.97 397.846 738.85C370.544 738.45 343.063 741.086 315.789 739.342C313.508 739.197 310.963 738.978 309.49 737.013C305.959 732.3 307.961 720.318 308.43 714.626Z"/>
	<path fill="#796A64" transform="scale(0.146484 0.146484)" d="M579.227 729.41C582.074 729.057 586.027 728.156 588.58 729.617C589.83 731.227 589.819 732.299 589.915 734.288L589.967 735.261C589.975 735.461 589.978 735.662 589.984 735.862L586.099 736.059C583.94 735.887 581.762 736.131 579.598 735.864C577.081 735.554 574.869 734.889 573.298 732.889L573.97 731.613C575.695 730.397 577.195 729.939 579.227 729.41Z"/>
	<path fill="#796A64" transform="scale(0.146484 0.146484)" d="M363.831 727.861C365.845 725.605 371.055 722.783 374.11 722.648C375.717 722.577 377.405 723.065 378.578 724.201C380.062 725.64 380.695 727.997 380.517 730.013C380.303 732.438 378.615 735.863 376.731 737.466C376.014 738.076 374.585 737.876 373.662 737.914C366.738 737.558 359.732 737.715 352.796 737.672C352.621 734.453 352.878 731.263 353.087 728.052L362.695 730.541L363.831 727.861Z"/>
	<path fill="#796A64" transform="scale(0.146484 0.146484)" d="M362.695 730.541L363.831 727.861L364.591 729.011L366.373 731.157C368.183 732.59 369.91 733.355 372.065 734.157C372.583 734.992 372.864 735.482 373.114 736.45L373.662 737.914C366.738 737.558 359.732 737.715 352.796 737.672C352.621 734.453 352.878 731.263 353.087 728.052L362.695 730.541Z"/>
	<path fill="#696462" transform="scale(0.146484 0.146484)" d="M362.695 730.541L363.831 727.861L364.591 729.011L366.373 731.157C368.183 732.59 369.91 733.355 372.065 734.157C372.583 734.992 372.864 735.482 373.114 736.45C369.438 735.165 364.688 736.473 361.708 734.57C361.391 732.685 361.875 732.223 362.695 730.541Z"/>
	<path fill="#91817A" transform="scale(0.146484 0.146484)" d="M364.591 729.011C368.687 729.027 374.316 728.123 378.015 730.073L377.035 731.729L378.742 730.912L377.183 729.721L376.953 731.761C373.124 732.307 370.143 731.961 366.373 731.157L364.591 729.011Z"/>
	<path fill="#91817A" transform="scale(0.146484 0.146484)" d="M503.857 726.804C506.435 726.642 510.839 725.864 512.895 727.573L512.982 729.196C511.101 729.577 509.039 730.143 507.13 730.252C505.569 730.341 504.944 730.048 503.839 729.01L503.857 726.804Z"/>
	<path fill="#696462" transform="scale(0.146484 0.146484)" d="M424.052 727.223C425.957 727.287 427.373 727.322 429.098 728.179C429.66 729.9 429.334 730.092 428.66 731.709C426.627 731.801 425.581 732.07 423.744 731.133C423.301 729.446 423.598 728.873 424.052 727.223Z"/>
	<path fill="#696462" transform="scale(0.146484 0.146484)" d="M472.197 727.273C472.93 727.32 473.896 727.324 474.582 727.581C476.084 728.145 476.591 729.141 477.289 730.458C476.829 731.02 476.443 731.025 475.771 731.259C473.76 731.628 472.573 732.111 470.596 731.339C470.611 729.416 471.189 728.871 472.197 727.273Z"/>
	<path fill="#696462" transform="scale(0.146484 0.146484)" d="M652.31 718.926C674.239 716.746 696.575 718.783 718.545 719.039C730.612 719.179 742.692 716.493 754.745 716.839C760.904 717.016 766.888 718.298 772.982 719.065C779.148 719.842 785.422 720.181 791.626 720.537C801.116 721.083 810.569 720.694 820.065 720.691C831.901 720.686 843.868 721.016 855.698 721.39C869.471 721.825 883.143 724.174 896.878 724.688C906.565 725.051 916.748 723.401 926.486 723C939.294 722.472 951.339 723.894 964.051 724.523C974.016 725.015 983.23 724.233 993.104 726.337C993.027 731.244 993.516 735.823 994.214 740.659C984.507 741 974.883 739.34 965.194 739.056C952.035 738.67 938.789 738.974 925.619 738.848C917.013 738.765 908.424 738.167 899.803 738.122C891.18 738.076 872.632 740.897 866.554 739.815C865.532 738.137 864.799 735.481 862.696 735.102C852.34 733.235 808.283 737.587 802.696 733.866L801.853 731.771C796.788 730.329 790.025 732.319 784.639 731.965C774.914 731.325 765.198 729.624 755.462 729.271C741.679 728.77 727.312 729.935 713.521 730.492C707.096 730.752 700.643 730.413 694.227 730.778C688.52 731.103 682.855 732.019 677.148 732.311C671.495 732.6 665.811 732.406 660.17 732.914C650.253 733.806 640.526 735.262 630.544 735.466C621.068 735.577 597.852 733.979 589.984 735.862C589.978 735.662 589.975 735.461 589.967 735.261L589.915 734.288C589.819 732.299 589.83 731.227 588.58 729.617C586.027 728.156 582.074 729.057 579.227 729.41L577.946 728.723C578.638 728.645 579.328 728.553 580.016 728.448C585.369 727.614 590.332 722.806 593.481 718.563C600.153 718.274 606.82 718.558 613.491 718.758C626.42 717.878 639.368 718.734 652.31 718.926Z"/>
	<defs>
		<linearGradient id="gradient_3" gradientUnits="userSpaceOnUse" x1="587.06073" y1="724.18762" x2="628.96606" y2="731.34827">
			<stop offset="0" stop-color="#79685F"/>
			<stop offset="1" stop-color="#968882"/>
		</linearGradient>
	</defs>
	<path fill="url(#gradient_3)" transform="scale(0.146484 0.146484)" d="M593.481 718.563C600.153 718.274 606.82 718.558 613.491 718.758C616.953 719.189 619.698 718.832 622.234 721.362C622.149 722.319 622.351 722.503 621.576 723.179C619.967 724.583 615.644 725.205 613.531 725.832C616.724 726.653 618.998 727.328 622.197 726.154C623.846 726.738 624.884 728.319 625.977 729.621L628.251 730.2C628.414 731.655 629.474 732.591 630.39 733.657L630.544 735.466C621.068 735.577 597.852 733.979 589.984 735.862C589.978 735.662 589.975 735.461 589.967 735.261L589.915 734.288C589.819 732.299 589.83 731.227 588.58 729.617C586.027 728.156 582.074 729.057 579.227 729.41L577.946 728.723C578.638 728.645 579.328 728.553 580.016 728.448C585.369 727.614 590.332 722.806 593.481 718.563Z"/>
	<path fill="#796A64" transform="scale(0.146484 0.146484)" d="M613.491 718.758C626.42 717.878 639.368 718.734 652.31 718.926C652.094 718.992 651.88 719.061 651.663 719.122C645.024 720.99 630.53 719.57 625.609 724.121C625.003 726.122 625.16 726.418 625.706 728.348C627.049 728.652 628.486 728.807 629.753 728.099C631.645 727.042 632.173 725.905 634.49 725.632C637.513 726.689 640.08 727.595 643.287 727.799C643.81 727.833 644.332 727.892 644.855 727.934C638.982 727.989 633.793 727.933 628.251 730.2L625.977 729.621C624.884 728.319 623.846 726.738 622.197 726.154C618.998 727.328 616.724 726.653 613.531 725.832C615.644 725.205 619.967 724.583 621.576 723.179C622.351 722.503 622.149 722.319 622.234 721.362C619.698 718.832 616.953 719.189 613.491 718.758Z"/>
	<path fill="#484945" transform="scale(0.146484 0.146484)" d="M333.047 189.394C342.618 188.79 365.777 191.211 375.96 192.749C378.547 193.14 383.467 193.885 385.013 195.98L383.885 196.829C371.968 200.632 346.74 196.966 334.421 193.667C332.866 192.254 333.204 191.436 333.047 189.394Z"/>
</svg>
